<svg width="102" height="73" viewBox="0 0 102 73" fill="none" xmlns="http://www.w3.org/2000/svg">
<rect x="1" y="1.13477" width="100" height="70" rx="7" fill="white" fill-opacity="0.2" stroke="#E9E9E9" stroke-width="2"/>
<path fill-rule="evenodd" clip-rule="evenodd" d="M62.5435 35.9453C61.9202 37.082 60.7102 37.8337 59.3352 37.8337H45.6768L43.6602 41.5003H65.6602V45.167H43.6602C40.8735 45.167 39.1135 42.1787 40.4518 39.722L42.9268 35.2487L36.3268 21.3337H32.6602V17.667H38.6552L40.3785 21.3337H67.5118C68.9052 21.3337 69.7852 22.837 69.1068 24.047L62.5435 35.9453ZM64.3953 25.0003H42.1203L46.4653 34.167H59.3353L64.3953 25.0003ZM43.66 47.0003C41.6433 47.0003 40.0116 48.6503 40.0116 50.667C40.0116 52.6837 41.6433 54.3337 43.66 54.3337C45.6766 54.3337 47.3266 52.6837 47.3266 50.667C47.3266 48.6503 45.6766 47.0003 43.66 47.0003ZM58.345 50.667C58.345 48.6503 59.9766 47.0003 61.9933 47.0003C64.01 47.0003 65.66 48.6503 65.66 50.667C65.66 52.6837 64.01 54.3337 61.9933 54.3337C59.9766 54.3337 58.345 52.6837 58.345 50.667Z" fill="#EFC600"/>
</svg>
