<svg width="139" height="195" viewBox="0 0 139 195" fill="none" xmlns="http://www.w3.org/2000/svg">
<path fill-rule="evenodd" clip-rule="evenodd" d="M120.298 69.9467C120.298 98.7056 97.5053 122.02 69.3887 122.02C41.2725 122.02 18.4795 98.7056 18.4795 69.9467C18.4795 41.1872 41.2725 17.8729 69.3887 17.8729C97.5053 17.8729 120.298 41.1872 120.298 69.9467Z" fill="#EFC600"/>
<path d="M20.5534 82.8438C20.5534 82.8438 16.8679 28.5403 66.905 26.9886L63.4143 21.1704L36.2626 30.2858L28.5048 39.2069L21.717 52.2014L17.8379 67.3288L19.0015 77.4136" fill="#F3DB65"/>
<path d="M34.5199 34.4239C25.5878 43.5632 20.0604 56.1818 20.0604 70.1415C20.0604 84.0983 25.5878 96.7185 34.5199 105.856C43.4564 114.994 55.7722 120.632 69.3878 120.632C83.0037 120.632 95.3204 114.994 104.256 105.856C113.188 96.7185 118.716 84.0983 118.716 70.1415C118.716 56.1818 113.188 43.5632 104.256 34.4239C95.3204 25.2881 83.0037 19.6496 69.3878 19.6484C55.7722 19.6496 43.4564 25.2881 34.5199 34.4239ZM32.259 108.067C22.7661 98.3583 16.8975 84.9413 16.8975 70.1415C16.8975 55.3393 22.7661 41.9236 32.259 32.2147C41.7496 22.504 54.887 16.4851 69.3878 16.4868C83.8887 16.4851 97.0275 22.504 106.516 32.2147C116.01 41.9236 121.88 55.3405 121.878 70.1415C121.88 84.9413 116.01 98.3583 106.516 108.067C97.0275 117.777 83.8887 123.795 69.3878 123.795C54.887 123.795 41.7496 117.777 32.259 108.067Z" fill="#231F20"/>
<path fill-rule="evenodd" clip-rule="evenodd" d="M90.8192 70.2348L83.0612 71.3985L72.5882 72.5621L65.8 72.7559L59.2063 72.5621L54.1635 71.0104L49.7028 66.162L46.2118 56.271L45.4361 54.1375L40.7815 52.5863L38.0663 48.1255L36.127 41.7254L38.2606 36.1009L43.3027 34.3555L47.3755 36.2953L49.3153 40.5618L51.6426 40.1737L52.418 39.2044L51.6426 34.7435L51.4482 29.119L52.6119 21.3616L52.5665 16.9304L56.1028 11.2768L62.309 6.81597L73.1701 2.16138L85.1942 3.90685L95.667 11.4706L100.516 19.228L103.619 24.8525L104.394 38.8163L102.067 50.8409L97.8006 61.5074L93.7278 67.1319" fill="#F0D6B7"/>
<path fill-rule="evenodd" clip-rule="evenodd" d="M84.2248 103.787L56.4907 104.95V109.605L58.818 125.896L57.6544 127.254L38.2606 120.66L36.9026 118.332L34.9633 96.4172L30.5032 83.229L29.5332 80.1261L45.0481 69.4596L49.897 67.5198L54.1634 72.7562L57.8483 76.0534L62.1154 77.4108L64.0545 77.9926L66.3818 88.0774L68.1272 90.2108L72.5882 88.6592L69.4847 94.6717L86.3578 102.623L84.2248 103.787Z" fill="#224A95"/>
<path fill-rule="evenodd" clip-rule="evenodd" d="M38.2605 36.1017L43.3026 34.3562L47.3754 36.296L49.3152 40.5625L51.6425 40.1744L52.2243 37.8471L51.0607 33.3869L52.2243 22.7197L51.2543 16.9015L54.7452 12.8287L62.309 6.81669L60.1755 3.90757L49.5088 9.14399L45.0481 12.6349L42.5269 18.0651L38.648 23.3015L37.4844 29.5078L38.2605 36.1017Z" fill="#3E4346"/>
<path fill-rule="evenodd" clip-rule="evenodd" d="M46.2112 17.8717C46.2112 17.8717 49.1204 10.6961 60.7568 7.2051C72.3933 3.71416 61.3387 4.68348 61.3387 4.68348L48.7329 9.5324L43.8839 14.3807L41.751 18.2598L46.2112 17.8717Z" fill="#DCD9D8"/>
<path fill-rule="evenodd" clip-rule="evenodd" d="M40.3935 34.7442C40.3935 34.7442 36.3207 21.1679 51.8361 19.2287L51.2543 16.9014L40.5878 19.423L37.4844 29.5077L38.2605 36.1016L40.3935 34.7442Z" fill="#DCD9D8"/>
<path fill-rule="evenodd" clip-rule="evenodd" d="M46.5996 52.7812L49.139 50.3207C49.139 50.3207 50.2851 50.4539 50.4787 51.8113C50.6724 53.1693 51.2542 65.3876 59.5936 71.982C60.3543 72.5836 53.3879 71.0115 53.3879 71.0115L47.1814 61.3148" fill="#F7E4CD"/>
<path fill-rule="evenodd" clip-rule="evenodd" d="M82.286 49.0957C82.286 49.0957 82.7381 43.217 84.3212 43.669C85.9043 44.1211 85.9043 45.7043 85.9043 45.7043C85.9043 45.7043 82.0597 48.1915 82.286 49.0957Z" fill="#F7E4CD"/>
<path d="M98.3822 27.5699C98.3822 27.5699 95.1857 28.2448 94.8913 31.0608C94.5969 33.8774 98.3822 31.6426 98.9641 31.4489" fill="#F7E4CD"/>
<path d="M74.9155 27.7627C74.9155 27.7627 70.6484 28.3445 70.6484 31.0593C70.6484 33.7747 75.4975 33.5809 76.8549 32.4173" fill="#F7E4CD"/>
<path fill-rule="evenodd" clip-rule="evenodd" d="M48.5384 40.3694C48.5384 40.3694 41.1683 35.9085 40.3929 40.1756C39.6172 44.4421 37.8713 47.5456 41.5565 52.0059L39.0354 51.2303L36.7081 45.2183L35.9326 39.4001L40.3929 34.7449L45.4354 35.133L48.3446 37.4603L48.5384 40.3694Z" fill="#F7E4CD"/>
<path fill-rule="evenodd" clip-rule="evenodd" d="M52.0301 28.1504C52.0301 28.1504 55.3272 11.0837 72.0065 7.78654C85.7382 5.07233 92.9517 8.36836 95.667 11.4712C95.667 11.4712 83.4487 -3.07379 71.8121 1.38647C60.1756 5.84732 51.6426 13.9929 51.8362 19.2287C52.1665 28.1469 52.0301 28.1504 52.0301 28.1504Z" fill="#F7E4CD"/>
<path fill-rule="evenodd" clip-rule="evenodd" d="M97.0243 13.4105C97.0243 13.4105 91.4004 13.2167 91.2061 18.2594C91.2061 18.2594 91.2055 19.035 91.5935 19.8105C91.5935 19.8105 96.055 14.7679 98.7698 17.4832" fill="#F7E4CD"/>
<path fill-rule="evenodd" clip-rule="evenodd" d="M72.3965 20.3369C72.3965 20.3369 71.4283 12.5969 64.8294 17.0968C60.5627 20.0059 60.9509 24.0786 61.7264 24.8542C62.5021 25.6304 62.2912 27.1926 62.8817 26.1203C63.4719 25.048 63.2775 21.557 65.4112 20.5877C67.5446 19.6178 71.0419 18.5344 72.3965 20.3369Z" fill="#F7E4CD"/>
<path fill-rule="evenodd" clip-rule="evenodd" d="M54.1635 72.7576L35.9333 80.9031C35.9333 80.9031 43.497 110.964 39.6178 120.273L36.9026 119.304L36.7087 107.861L31.6669 86.1401L29.5332 80.1276L48.5391 67.328L54.1635 72.7576Z" fill="#3E6BBF"/>
<path fill-rule="evenodd" clip-rule="evenodd" d="M56.0374 89.3836L58.6238 92.5393V104.176H55.5203C55.5203 104.176 55.1328 96.0302 55.1328 95.0602C55.1328 94.0904 55.5203 90.5995 55.5203 90.5995" fill="#3E6BBF"/>
<path fill-rule="evenodd" clip-rule="evenodd" d="M56.1024 105.921L47.375 106.308L49.8966 108.054L56.1024 109.023" fill="#3E6BBF"/>
<path fill-rule="evenodd" clip-rule="evenodd" d="M85.9697 103.981L93.1454 103.787L94.8908 121.63L87.5209 122.6L85.9697 103.981Z" fill="#224A95"/>
<path fill-rule="evenodd" clip-rule="evenodd" d="M87.9092 103.982L98.7701 103.401C98.7701 103.401 103.23 92.1521 103.23 91.5702C103.23 90.9884 107.109 75.2793 107.109 75.2793L98.382 66.1644L96.6365 64.6127L91.9819 69.2673V87.3038L87.9092 103.982Z" fill="#224A95"/>
<path fill-rule="evenodd" clip-rule="evenodd" d="M92.7573 102.625L85.9697 103.982L86.939 109.413C89.4601 110.576 93.7272 107.473 93.7272 107.473" fill="#3E6BBF"/>
<path fill-rule="evenodd" clip-rule="evenodd" d="M92.9521 68.6848L106.528 78.7695L106.916 74.1149L96.6368 64.612L92.9521 68.6848Z" fill="#3E6BBF"/>
<path fill-rule="evenodd" clip-rule="evenodd" d="M62.8328 142.19L58.8175 125.896L56.8205 113.874L56.4902 104.951L74.6634 103.983L85.9698 103.981L84.9417 124.347L86.6871 140.056L86.4934 142.965L71.7543 144.129L62.8328 142.19Z" fill="white"/>
<path fill-rule="evenodd" clip-rule="evenodd" d="M83.4484 103.789C83.4484 103.789 82.4791 123.959 85.3882 138.31C85.3882 138.31 79.57 141.996 71.0361 142.965L87.3274 142.383L89.2667 141.219L86.9394 109.413L86.3575 102.625" fill="#DCD9D8"/>
<path fill-rule="evenodd" clip-rule="evenodd" d="M95.2215 120.08L102.785 117.947L117.136 117.171L119.27 110.577L115.391 99.1344L110.931 98.5526L104.724 100.492L98.77 103.399L95.6089 102.819L93.1455 103.787" fill="white"/>
<path fill-rule="evenodd" clip-rule="evenodd" d="M95.085 116.201C95.085 116.201 100.127 113.874 100.903 114.068L98.7702 103.401L101.291 102.431C101.291 102.431 103.037 112.516 103.037 113.68C103.037 113.68 113.897 114.261 114.867 114.261C114.867 114.261 117.194 109.801 116.612 105.146L118.746 111.352L118.94 114.843L115.837 119.498L112.346 120.273L106.528 120.08L104.588 117.559L97.8003 118.528L95.6668 119.304" fill="#DCD9D8"/>
<path d="M87.4637 102.432L83.1972 91.5707L78.7363 85.1706C78.7363 85.1706 79.7056 82.4552 81.0636 82.4552C82.4216 82.4552 85.5245 82.4552 85.5245 82.4552L89.791 84.007L89.4035 91.1827L87.4637 102.432Z" fill="white"/>
<path fill-rule="evenodd" clip-rule="evenodd" d="M88.2973 98.7457C88.2973 98.7457 82.8665 88.2734 82.8665 86.7218C82.8665 86.7218 83.8358 84.3945 85.1938 84.9763C86.5518 85.5581 89.4609 87.1093 89.4609 87.1093V83.4246L82.8665 82.0666L78.4062 82.6484L85.97 100.491L87.5211 100.686" fill="#DCD9D8"/>
<path d="M64.5787 73.1472L59.2059 72.563L54.1631 71.0113V72.7568L56.627 75.4739L64.3846 78.9648" fill="white"/>
<path fill-rule="evenodd" clip-rule="evenodd" d="M55.909 73.7274C55.909 73.7274 61.9215 76.249 63.8609 75.6672L64.0538 77.9922L58.6245 76.8309L55.3271 74.5036L55.909 73.7274Z" fill="#DCD9D8"/>
<path fill-rule="evenodd" clip-rule="evenodd" d="M95.2001 83.1172C91.9093 83.0206 88.9362 82.6296 86.3331 81.8954C86.51 80.8283 86.1789 79.781 86.4448 79.0124C87.1704 78.4899 88.3864 78.4981 89.4831 78.3753C88.5347 77.9093 87.2024 77.7248 86.108 77.9942C86.0824 77.2536 85.7501 76.7945 85.5488 76.215C87.399 75.5546 91.7668 71.2253 94.2238 72.6589C95.3945 73.3408 95.8919 77.2355 95.9827 79.1294C96.0583 80.7003 95.8401 82.2852 95.2001 83.1172Z" fill="#EFC600"/>
<path d="M95.2001 83.1172C91.9093 83.0206 88.9362 82.6296 86.3331 81.8954C86.51 80.8283 86.1789 79.781 86.4448 79.0124C87.1704 78.4899 88.3864 78.4981 89.4831 78.3753C88.5347 77.9093 87.2024 77.7248 86.108 77.9942C86.0824 77.2536 85.7501 76.7945 85.5488 76.215C87.399 75.5546 91.7668 71.2253 94.2238 72.6589C95.3945 73.3408 95.8919 77.2355 95.9827 79.1294C96.0583 80.7003 95.8401 82.2852 95.2001 83.1172Z" stroke="#EFC600" stroke-width="2.5"/>
<path fill-rule="evenodd" clip-rule="evenodd" d="M79.4635 77.7373C79.4548 77.9863 79.4443 78.2371 79.4344 78.4885C78.4069 79.1634 76.7482 79.1552 75.6206 79.7225C77.2829 79.7952 78.5914 80.1955 79.7236 80.7599C79.6986 81.3871 79.6747 82.0137 79.6503 82.6409C77.7669 83.9303 76.0465 85.8503 73.829 87.0594C72.7806 87.6312 69.101 89.1026 67.9855 88.8425C67.3544 88.696 67.2976 87.9128 67.0453 87.1746C66.5078 85.5937 65.2703 83.0773 65.1623 80.6976C65.0249 77.6919 64.7214 72.6545 67.9606 73.2736C70.5738 73.7722 73.6131 74.976 75.6363 76.0814C76.8727 76.7575 77.5877 77.593 79.4635 77.7373Z" fill="#EFC600"/>
<path d="M79.4635 77.7373C79.4548 77.9863 79.4443 78.2371 79.4344 78.4885C78.4069 79.1634 76.7482 79.1552 75.6206 79.7225C77.2829 79.7952 78.5914 80.1955 79.7236 80.7599C79.6986 81.3871 79.6747 82.0137 79.6503 82.6409C77.7669 83.9303 76.0465 85.8503 73.829 87.0594C72.7806 87.6312 69.101 89.1026 67.9855 88.8425C67.3544 88.696 67.2976 87.9128 67.0453 87.1746C66.5078 85.5937 65.2703 83.0773 65.1623 80.6976C65.0249 77.6919 64.7214 72.6545 67.9606 73.2736C70.5738 73.7722 73.6131 74.976 75.6363 76.0814C76.8727 76.7575 77.5877 77.593 79.4635 77.7373V77.7373Z" stroke="#EFC600" stroke-width="2.5"/>
<path fill-rule="evenodd" clip-rule="evenodd" d="M81.335 81.3224C81.0475 79.6852 80.7153 79.2179 80.8439 77.7896C85.2105 74.8781 86.0303 82.7903 81.335 81.3224Z" fill="#EFC600"/>
<path d="M81.335 81.3224C81.0475 79.6852 80.7153 79.2179 80.8439 77.7896C85.2105 74.8781 86.0303 82.7903 81.335 81.3224Z" stroke="#EFC600" stroke-width="2.5"/>
<path fill-rule="evenodd" clip-rule="evenodd" d="M87.6568 82.6504C87.6568 82.6504 86.2988 80.7106 87.2687 80.1288C88.2386 79.5469 89.2085 80.1293 89.7903 79.1594C90.3722 78.1895 89.7903 77.6077 89.9841 76.4441C90.1778 75.2804 91.1483 75.0861 92.1176 74.8923C93.0869 74.6986 95.8029 74.3105 96.1904 75.2804L95.0267 71.7895L92.6995 71.0139L85.3295 75.2804L84.9414 77.414V81.6805" fill="#F3DB65"/>
<path fill-rule="evenodd" clip-rule="evenodd" d="M67.2937 89.0508C67.0607 86.0241 66.8142 83.0015 66.5398 79.9778C66.1294 75.4628 67.6244 76.2506 71.5381 76.2506C72.1358 76.2506 75.2186 76.9633 75.4391 77.4142C76.4969 79.5746 73.6704 79.0945 76.6575 80.7237C79.1791 82.0985 83.6335 79.8887 82.6148 76.8324C82.0446 76.1528 79.644 76.6206 78.7835 76.1744C77.2684 75.3889 75.7533 74.6034 74.2381 73.818C72.3104 72.8178 67.8551 71.3598 65.7998 72.7573C60.5923 76.2989 66.1285 85.1478 67.9862 88.8424" fill="#F3DB65"/>
<path fill-rule="evenodd" clip-rule="evenodd" d="M72.3971 20.3358C67.1111 19.1047 64.4845 22.5479 62.8823 26.1191C61.4515 25.7724 62.0209 23.8268 62.3822 22.8353C63.3284 20.2334 67.1414 16.7698 70.2569 17.2393C71.5976 17.4412 73.4119 18.6671 72.3971 20.3358Z" fill="#231F20"/>
<path fill-rule="evenodd" clip-rule="evenodd" d="M98.1524 26.3549C98.2356 26.3584 98.32 26.3613 98.4032 26.3648C99.5977 28.8463 100.632 31.475 102.138 33.6655C101.129 36.0167 94.4945 38.0973 94.5969 33.8756C96.0317 33.2484 98.5085 33.7476 99.7803 32.9464C99.0449 30.928 97.9837 29.2099 98.1524 26.3549Z" fill="#231F20"/>
<path fill-rule="evenodd" clip-rule="evenodd" d="M75.1035 26.4205C76.2369 28.4982 76.6057 30.6812 78.2168 32.2515C78.9423 32.9584 80.3533 33.8201 79.6539 35.7861C79.4904 36.2498 78.2959 37.2837 77.6065 37.4868C75.0878 38.2303 69.2188 37.6404 71.2063 34.5003C73.2893 34.5974 76.0891 35.853 77.646 34.3408C76.4504 32.4295 74.3188 28.6483 75.1035 26.4205Z" fill="#231F20"/>
<path fill-rule="evenodd" clip-rule="evenodd" d="M97.2068 47.537C93.4144 49.9731 89.1858 52.6222 82.9719 52.0078C81.6441 50.8534 81.138 48.2847 82.4279 46.5881C83.0993 47.7424 82.6775 49.8655 84.5486 50.1849C88.0745 50.7883 92.1781 48.0281 94.7142 47.0634C96.2869 44.412 94.5787 43.4369 93.1619 41.7304C90.2615 38.2342 86.3709 33.9008 86.5123 28.6667C87.6846 27.8167 87.7859 29.9642 87.954 30.3552C89.4685 33.8996 93.28 38.4326 96.0617 41.4663C96.7448 42.2133 97.8695 42.9301 97.9946 43.4241C98.3553 44.8606 97.0561 46.5817 97.2068 47.537Z" fill="#231F20"/>
<path fill-rule="evenodd" clip-rule="evenodd" d="M47.211 44.9727C46.0223 44.2943 45.7394 41.306 44.3439 41.2211C42.3496 41.1001 42.7132 45.0978 42.7212 47.4355C41.3484 46.1893 41.107 42.3521 42.1155 40.3815C40.9662 39.8171 40.4529 41.0041 39.8154 41.4224C40.6348 35.4703 48.5224 38.6616 47.211 44.9727Z" fill="#231F20"/>
<path fill-rule="evenodd" clip-rule="evenodd" d="M99.6211 50.0155C97.8558 53.3756 95.3586 57.076 90.1787 57.1836C90.0733 56.0985 89.9925 54.4473 90.1845 53.7939C94.1444 53.4134 96.5892 51.3979 99.6211 50.0155Z" fill="#231F20"/>
<path fill-rule="evenodd" clip-rule="evenodd" d="M74.8047 52.1945C78.1085 53.9319 84.1804 54.1186 88.671 53.9871C88.9118 54.971 88.906 56.1864 88.9153 57.3861C83.143 57.6742 76.3182 56.2458 74.8047 52.1945Z" fill="#231F20"/>
<path fill-rule="evenodd" clip-rule="evenodd" d="M74.1763 55.4337C76.461 61.1699 84.3133 60.5095 90.935 60.3512C90.6435 61.096 90.0116 61.9757 89.2262 62.2939C87.1043 63.1574 81.2517 63.8125 78.3059 62.248C76.4377 61.2548 75.2374 59.0107 74.2138 57.6952C73.7195 57.0598 71.2581 55.4371 74.1763 55.4337Z" fill="#231F20"/>
<path fill-rule="evenodd" clip-rule="evenodd" d="M96.931 87.0753C94.25 91.6671 91.6847 96.3833 88.5039 100.434C89.8374 96.5126 90.4082 89.9501 90.6095 84.9471C93.3994 83.6414 95.7883 85.2409 96.931 87.0753Z" fill="#6C8FD1"/>
<path fill-rule="evenodd" clip-rule="evenodd" d="M111.357 103.578C108.356 104.179 106.247 107.097 103.318 106.909C104.928 104.641 107.748 103.684 111.357 103.578Z" fill="#231F20"/>
<path fill-rule="evenodd" clip-rule="evenodd" d="M112.682 108.276C110.235 108.535 107.361 108.931 104.88 108.727C106.055 106.932 110.581 107.552 112.682 108.276Z" fill="#231F20"/>
<path fill-rule="evenodd" clip-rule="evenodd" d="M113.53 112.325C110.78 112.385 107.363 112.33 104.749 112.111C106.295 110.45 111.747 111.495 113.53 112.325Z" fill="#231F20"/>
<path fill-rule="evenodd" clip-rule="evenodd" d="M91.7577 123.409C92.1522 126.862 93.5212 130.361 93.3496 134.143C91.8293 134.656 90.956 135.104 88.919 135.102C88.7753 131.887 88.3453 126.974 88.4739 123.91C89.4758 123.976 90.953 123.194 91.7577 123.409Z" fill="#DCD9D8"/>
<path fill-rule="evenodd" clip-rule="evenodd" d="M87.3244 72.5165C85.9437 73.4178 84.7678 74.543 83.4419 75.5053C80.5013 75.6508 78.8966 75.3017 76.7363 73.6133C76.7718 73.4777 76.9888 73.5382 76.997 73.3718C80.1447 74.7746 84.1459 72.8004 87.3244 72.5165Z" fill="#F0D6B7"/>
<path fill-rule="evenodd" clip-rule="evenodd" d="M70.8008 93.9722C71.6656 90.2247 75.0543 88.2838 78.1315 86.22C81.3077 90.251 83.2393 95.435 85.3665 100.438C80.3407 98.9225 75.2055 96.4643 70.8008 93.9722Z" fill="#6C8FD1"/>
<path fill-rule="evenodd" clip-rule="evenodd" d="M88.4731 123.91C88.3445 126.974 88.7744 131.888 88.9182 135.102C90.9551 135.104 91.8284 134.656 93.3487 134.143C93.5204 130.361 92.1514 126.863 91.7569 123.409C90.9522 123.195 89.475 123.977 88.4731 123.91ZM56.7554 106.485C58.0986 118.833 60.0441 129.213 63.6123 140.148C71.5317 142.552 81.0787 142.762 88.0786 140.592C86.7933 134.421 87.3548 126.907 86.6037 120.322C86.0375 115.372 86.3261 110.391 85.55 105.341C77.0681 103.576 65.0794 104.928 56.7554 106.485ZM87.5555 105.418C87.484 110.721 87.7929 115.953 88.1979 121.262C90.2342 120.957 91.6161 120.753 93.5082 120.338C92.8938 115.226 92.9694 109.474 91.7179 104.952C90.2715 104.966 88.9979 104.935 87.5555 105.418ZM97.8858 104.563C96.9194 104.342 95.7942 104.555 94.8708 104.573C95.3048 108.896 96.3579 113.666 96.7286 118.204C98.1814 118.249 98.9575 117.564 100.153 117.333C100.217 113.35 99.8047 107.862 97.8858 104.563ZM113.528 118.855C116.556 118.119 118.46 114.41 117.613 110.601C117.045 108.041 116.032 103.22 114.949 101.583C114.148 100.371 111.978 98.7855 110.244 99.8955C107.425 101.701 102.458 102.225 100.402 104.41C101.433 107.843 101.753 112.558 102.178 116.908C105.7 117.127 110.034 115.939 112.964 117.2C110.919 117.863 108.265 117.868 106.498 118.833C107.942 119.531 111.323 119.39 113.528 118.855ZM85.3655 100.438C83.2384 95.4352 81.3067 90.2513 78.1306 86.2203C75.0533 88.284 71.6647 90.2249 70.7999 93.9724C75.2046 96.4645 80.3397 98.9227 85.3655 100.438ZM90.6089 84.9466C90.4076 89.9496 89.8369 96.5122 88.5033 100.433C91.6841 96.3829 94.2494 91.6667 96.9305 87.0748C95.7878 85.2405 93.3988 83.641 90.6089 84.9466ZM84.665 82.8346C83.4601 82.7049 82.4372 84.2199 80.8704 83.5648C80.5114 83.9616 80.185 84.3916 79.819 84.7791C83.2797 88.9497 84.8524 94.8667 87.5253 99.7679C88.9595 95.0599 88.7942 89.9019 89.1102 84.7634C87.1395 84.8885 86.0463 82.9812 84.665 82.8346ZM80.843 77.7902C80.7144 79.2186 81.0467 79.6858 81.3341 81.323C86.0294 82.791 85.2096 74.8788 80.843 77.7902ZM75.6363 76.0808C73.6131 74.9753 70.5738 73.7715 67.9606 73.2729C64.7214 72.6533 65.0248 77.6913 65.1623 80.697C65.2703 83.0767 66.5078 85.5931 67.0453 87.1739C67.2976 87.9121 67.3544 88.6953 67.9855 88.8419C69.101 89.1019 72.7806 87.6305 73.829 87.0587C76.0465 85.8496 77.7669 83.9296 79.6503 82.6403C79.6747 82.0131 79.6986 81.3865 79.7236 80.7593C78.5914 80.1949 77.2828 79.7946 75.6206 79.7219C76.7481 79.1546 78.4069 79.1627 79.4344 78.4878C79.4443 78.2365 79.4548 77.9857 79.4635 77.7367C77.5877 77.5924 76.8726 76.7569 75.6363 76.0808ZM56.3118 72.5707C54.6326 74.2754 61.0214 76.5992 63.0555 76.7243C63.0441 75.6456 63.6702 74.6286 63.5441 73.8548C61.1282 73.4306 57.9532 73.7105 56.3118 72.5707ZM76.9966 73.3713C76.9884 73.5377 76.7714 73.4771 76.7359 73.6127C78.8962 75.3012 80.5009 75.6503 83.4414 75.5048C84.7674 74.5425 85.9433 73.4172 87.324 72.516C84.1455 72.7999 80.1442 74.774 76.9966 73.3713ZM95.9827 79.1284C95.8919 77.2346 95.3944 73.3398 94.2238 72.6579C91.7668 71.2237 87.399 75.5537 85.5488 76.2141C85.7501 76.7935 86.0823 77.2526 86.1079 77.9933C87.2024 77.7239 88.5347 77.9083 89.4831 78.3744C88.3864 78.4971 87.1704 78.489 86.4448 79.0115C86.1789 79.78 86.51 80.8273 86.3331 81.8944C88.9362 82.6287 91.9093 83.0196 95.2001 83.1162C95.8401 82.2842 96.0583 80.6993 95.9827 79.1284ZM53.4849 74.2196C52.9576 73.8437 49.3906 69.2025 48.9019 69.3951C42.4473 71.9405 36.412 76.342 31.0188 80.505C36.1609 91.5388 38.2366 105.057 38.6034 118.086C44.4939 120.841 49.6678 124.813 57.6611 125.228C56.7361 118.683 55.8918 112.844 55.3667 106.683C53.3583 105.836 50.4769 106.721 48.5974 106.421C48.5814 104.156 51.4679 105.429 51.7083 103.906C51.8895 102.753 50.1201 102.666 50.6963 100.852C52.1656 101.386 52.9372 102.566 54.5042 103.009C55.9361 99.8764 54.4842 94.3338 54.6906 91.7156C54.7297 91.224 54.9361 88.9921 56.0372 89.3838C57.0118 89.7303 55.9815 95.3195 56.0884 97.7975C56.1856 100.08 55.8126 102.29 56.7372 103.723C64.4612 102.671 72.3101 101.992 80.6673 101.763C78.8287 100.974 76.6446 100.227 74.2499 98.8773C72.9517 98.1454 68.8596 96.6227 68.4851 95.3897C67.8874 93.4249 70.0533 92.3783 70.4237 90.694C66.5248 92.8204 65.7642 88.6558 64.8419 85.7053C64.0062 83.033 63.5305 81.0368 63.3254 79.4955C59.9668 77.8944 56.3759 76.2728 53.4849 74.2196ZM92.5714 69.9565C97.9492 67.3488 98.9186 79.7027 96.8106 83.6823C97.1364 84.8693 98.257 85.3237 98.7143 86.3907C95.7133 91.7667 92.38 96.785 89.3179 102.098C91.5957 100.68 94.8493 101.844 97.5297 100.783C98.5095 100.395 99.2188 98.1523 99.9606 96.3579C102.001 91.4212 104.143 85.1974 105.096 80.4864C105.312 79.4129 105.898 77.074 105.767 76.1186C105.532 74.4081 103.211 73.1397 102.031 72.0819C99.8559 70.1282 98.4863 68.4089 96.2177 66.5819C95.2979 67.9399 93.3237 68.8522 92.5714 69.9565ZM41.1859 22.2655C38.6234 25.0851 39.1598 30.368 39.47 34.1266C44.1019 31.2128 50.2496 34.357 50.1917 39.313C52.4031 39.2542 51.0178 36.5511 50.6178 34.8097C49.3106 29.1218 52.8201 22.9422 50.777 17.7407C46.8098 18.0415 43.5507 19.6619 41.1859 22.2655ZM59.5214 5.90117C53.7202 7.54539 46.2853 11.7607 43.9014 16.9721C45.7473 16.7039 47.0287 15.773 48.8497 15.6578C49.5378 15.613 50.4394 15.9464 51.2304 15.7497C52.8065 15.3587 54.1368 11.8247 55.3258 10.5098C56.4849 9.22571 57.8781 8.67705 58.8316 7.50642C59.4441 7.21085 60.3498 7.23122 60.3846 6.31136C60.1191 6.02742 59.8395 5.81097 59.5214 5.90117ZM89.7199 7.44765C83.6986 4.05037 73.5067 1.49501 67.1017 4.68805C61.9334 7.26495 54.9474 11.5286 52.5656 16.9314C54.7906 22.1451 51.9065 26.9225 51.7224 32.2159C51.6247 35.0325 53.0486 37.4913 53.1577 40.5575C52.3963 41.8137 50.0701 41.9684 48.4598 41.8823C47.9178 39.1699 46.9689 36.1211 44.1758 35.8151C40.2234 35.3828 37.3336 38.6538 37.1541 42.072C36.9416 46.0918 40.2416 52.7543 44.9189 52.2918C46.7258 52.1131 47.1696 50.3019 49.1383 50.3205C50.2053 52.4494 47.4924 53.1179 47.2133 54.6406C47.1406 55.0339 47.4383 56.5711 47.6114 57.292C48.461 60.8021 50.3549 65.345 52.219 68.0173C54.5849 71.407 59.2332 71.9179 64.2339 72.2501C65.1271 70.326 68.4173 70.4842 70.5612 70.9875C67.9919 69.9699 65.6032 67.503 63.6236 65.3194C61.3498 62.814 59.0464 60.1266 58.93 56.8521C63.2271 62.8135 66.7771 68.0196 74.5909 70.6419C80.5032 72.6248 87.4083 69.7331 91.9512 66.543C93.8363 65.217 94.9616 63.1131 96.3015 61.1873C101.315 53.9756 103.655 43.6819 103.14 33.7048C102.928 29.5901 102.938 25.4894 101.557 22.7211C100.114 19.8265 95.2339 17.2368 92.3771 19.8551C91.8476 17.0402 94.7527 15.2994 98.1651 16.3123C95.7319 13.1722 93.1783 9.39908 89.7199 7.44765ZM100.938 100.288C105.643 97.9486 114.435 93.9917 117.384 100.296C118.473 102.62 119.75 106.549 120.314 108.948C121.11 112.332 119.451 119.445 115.972 120.581C112.899 121.584 109.314 121.523 105.613 120.78C105.177 120.417 104.692 119.785 104.353 119.127C101.71 119.024 99.2356 119.268 97.1481 120.355C97.3459 122.309 96.024 122.623 94.7847 123.025C93.866 126.668 96.6227 131.425 95.9629 134.747C95.4922 137.113 92.5807 137.479 90.4408 137.922C90.371 139.237 90.5345 140.335 90.6805 141.447C90.1912 143.25 87.9965 144.276 85.9171 144.528C79.0754 145.35 68.6874 145.72 62.1066 143.354C60.2702 138.849 58.8236 133.371 57.294 128.227C50.8758 128.913 45.6848 125.458 40.7912 123.195C39.0968 122.409 36.753 121.976 36.12 120.628C35.5063 119.322 35.7575 116.82 35.6052 114.456C35.2177 108.418 34.8859 102.595 33.2915 96.4127C32.5756 93.6386 31.3279 91.1908 30.4574 88.5178C29.6528 86.0405 28.2472 82.9789 27.8805 80.5085C27.3369 76.8471 30.7847 76.6434 32.9893 75.0568C36.3972 72.6032 39.0723 71.2464 42.7632 69.032C43.8564 68.3763 47.1531 66.7163 47.528 65.9518C48.2735 64.4362 46.2485 62.2991 45.7071 61.111C44.8507 59.2323 44.4041 57.6364 44.2814 55.7827C41.1852 55.2934 38.8382 53.4508 37.4204 51.3731C35.0752 47.9345 33.4488 41.5728 35.4779 36.7338C35.637 36.3527 36.4306 35.6033 36.5477 35.018C36.7786 33.8654 36.1131 32.3329 36.0718 31.1069C35.8586 24.8174 37.1359 19.3983 41.37 17.5016C43.0889 10.6541 49.241 8.37741 55.0372 4.97432C57.2038 3.70245 59.5922 2.88963 62.0589 1.98199C70.9074 -1.27448 84.4835 -0.66124 91.8273 4.89285C94.9412 7.24809 99.9187 12.2209 101.699 15.8213C106.401 25.3265 106.067 41.2121 102.778 52.7747C102.336 54.327 101.695 56.6089 100.8 58.4736C100.175 59.7758 98.2349 62.3812 98.4706 63.5309C98.7132 64.7195 102.895 67.8945 103.791 68.7591C105.406 70.3167 108.473 72.3839 108.722 74.3493C108.989 76.441 107.8 79.3024 107.198 81.3207C105.185 88.0564 103.221 94.2827 100.938 100.288Z" fill="#231F20"/>
<path fill-rule="evenodd" clip-rule="evenodd" d="M69.5478 53.6617C69.803 53.3219 71.2064 52.8058 73.1701 53.7513C73.1701 53.7513 70.8428 54.1393 71.0364 58.0195L70.0666 57.8252C70.0666 57.8252 69.0644 54.3069 69.5478 53.6617Z" fill="#F7E4CD"/>
<path fill-rule="evenodd" clip-rule="evenodd" d="M86.5515 87.0118C86.5515 87.6006 86.0738 88.0781 85.4845 88.0781C84.8956 88.0781 84.418 87.6006 84.418 87.0118C84.418 86.423 84.8956 85.9447 85.4845 85.9447C86.0738 85.9447 86.5515 86.423 86.5515 87.0118Z" fill="#1D1919"/>
<path fill-rule="evenodd" clip-rule="evenodd" d="M87.6179 91.9571C87.6179 92.5459 87.1402 93.0234 86.5509 93.0234C85.9621 93.0234 85.4844 92.5459 85.4844 91.9571C85.4844 91.3682 85.9621 90.89 86.5509 90.89C87.1402 90.89 87.6179 91.3682 87.6179 91.9571Z" fill="#1D1919"/>
<path fill-rule="evenodd" clip-rule="evenodd" d="M5.88488 150.952C5.88488 153.885 6.5453 155.938 7.4696 157.903C7.65279 158.293 7.57977 158.753 7.277 159.059C5.13669 161.222 0.999941 165.866 1 175.106C1.00006 185.035 7.78461 193.561 18.6401 193.561C28.6816 193.561 38.1803 182.408 38.1803 170.763C38.1803 163.963 34.8116 160.178 33.5198 158.976C33.2286 158.705 33.0814 158.301 33.1378 157.907C33.2394 157.198 33.3296 156.059 33.0238 155.294C32.4811 153.937 30.31 150.952 24.068 150.952C18.9636 150.952 15.0837 152.788 13.0865 153.994C12.4105 154.403 11.463 153.995 11.3985 153.208C11.3301 152.371 11.2769 151.405 11.3127 150.68C11.3857 149.199 11.8905 147.466 12.2632 146.365C12.4616 145.778 12.1119 145.133 11.4931 145.157C9.04774 145.251 5.88488 147.014 5.88488 150.952ZM14.1368 158.169C17.7382 161.845 23.3596 164.249 29.707 161.87C30.3852 161.616 30.4996 160.735 29.9269 160.292C28.2343 158.981 26.8537 158.203 25.1027 157.362C24.4764 157.062 24.6089 156.147 25.3017 156.096C26.1976 156.03 27.0352 156.034 27.9491 156.128C28.9002 156.226 29.4302 155.247 28.6343 154.717C27.4743 153.945 25.9107 153.215 24.0681 153.123C19.6831 152.903 15.78 155.592 14.2132 156.843C13.7937 157.178 13.761 157.786 14.1368 158.169ZM31.5937 164.167C33.4232 169.858 32.0449 191.61 19.1826 191.388C8.96423 191.212 6.33072 175.252 10.3153 164.076C10.5325 163.466 11.2778 163.25 11.8224 163.599C13.7986 164.865 18.1756 167.375 21.6253 167.234C25.5654 167.074 28.7905 165.001 30.2624 163.877C30.7371 163.515 31.4109 163.598 31.5937 164.167Z" fill="#EFC600"/>
<path d="M7.4696 157.903L6.79092 158.222V158.222L7.4696 157.903ZM7.277 159.059L6.74394 158.532H6.74393L7.277 159.059ZM1 175.106L0.25 175.106L1 175.106ZM33.5198 158.976L34.0306 158.427L33.5198 158.976ZM33.1378 157.907L32.3954 157.801V157.801L33.1378 157.907ZM33.0238 155.294L33.7201 155.015V155.015L33.0238 155.294ZM13.0865 153.994L13.4742 154.637L13.0865 153.994ZM11.3985 153.208L10.651 153.269L11.3985 153.208ZM11.3127 150.68L10.5636 150.643V150.643L11.3127 150.68ZM12.2632 146.365L12.9736 146.605V146.605L12.2632 146.365ZM11.4931 145.157L11.4642 144.407L11.4931 145.157ZM29.707 161.87L29.4438 161.168L29.4438 161.168L29.707 161.87ZM14.1368 158.169L13.6011 158.694V158.694L14.1368 158.169ZM29.9269 160.292L30.3861 159.699L30.3861 159.699L29.9269 160.292ZM25.1027 157.362L24.7782 158.039L25.1027 157.362ZM25.3017 156.096L25.3569 156.844L25.3017 156.096ZM27.9491 156.128L27.8723 156.875V156.875L27.9491 156.128ZM28.6343 154.717L28.2187 155.342L28.2187 155.342L28.6343 154.717ZM24.0681 153.123L24.1056 152.373L24.0681 153.123ZM14.2132 156.843L14.6813 157.429L14.6813 157.429L14.2132 156.843ZM19.1826 191.388L19.1697 192.138L19.1826 191.388ZM31.5937 164.167L30.8797 164.396L31.5937 164.167ZM10.3153 164.076L9.60888 163.824V163.824L10.3153 164.076ZM11.8224 163.599L12.2269 162.968L12.2269 162.968L11.8224 163.599ZM21.6253 167.234L21.5948 166.485L21.6253 167.234ZM30.2624 163.877L30.7176 164.473L30.7176 164.473L30.2624 163.877ZM8.14828 157.584C7.25966 155.695 6.63488 153.751 6.63488 150.952H5.13488C5.13488 154.019 5.83093 156.181 6.79092 158.222L8.14828 157.584ZM7.81006 159.587C8.34064 159.051 8.46155 158.25 8.14828 157.584L6.79092 158.222C6.84403 158.335 6.8189 158.456 6.74394 158.532L7.81006 159.587ZM1.75 175.106C1.74994 166.138 5.74549 161.673 7.81006 159.587L6.74393 158.532C4.52789 160.771 0.249939 165.594 0.25 175.106L1.75 175.106ZM18.6401 192.811C8.2673 192.811 1.75006 184.693 1.75 175.106L0.25 175.106C0.250066 185.377 7.30192 194.311 18.6401 194.311V192.811ZM37.4303 170.763C37.4303 176.388 35.1325 181.918 31.6058 186.041C28.0742 190.17 23.3817 192.811 18.6401 192.811V194.311C23.94 194.311 29.0176 191.375 32.7457 187.016C36.4787 182.652 38.9303 176.784 38.9303 170.763H37.4303ZM33.009 159.525C34.2043 160.637 37.4303 164.237 37.4303 170.763H38.9303C38.9303 163.688 35.419 159.718 34.0306 158.427L33.009 159.525ZM32.3954 157.801C32.3033 158.444 32.5421 159.091 33.009 159.525L34.0306 158.427C33.915 158.319 33.8595 158.158 33.8803 158.014L32.3954 157.801ZM32.3274 155.572C32.4296 155.828 32.4809 156.196 32.4836 156.626C32.4863 157.046 32.4431 157.468 32.3954 157.801L33.8803 158.014C33.9342 157.638 33.9869 157.136 33.9836 156.617C33.9803 156.109 33.9238 155.525 33.7201 155.015L32.3274 155.572ZM24.068 151.702C30.0189 151.702 31.9043 154.514 32.3274 155.572L33.7201 155.015C33.0579 153.36 30.601 150.202 24.068 150.202V151.702ZM13.4742 154.637C15.3983 153.475 19.1437 151.702 24.068 151.702V150.202C18.7835 150.202 14.7692 152.102 12.6988 153.352L13.4742 154.637ZM10.651 153.269C10.7089 153.975 11.1663 154.489 11.7035 154.732C12.2352 154.973 12.9041 154.981 13.4742 154.637L12.6988 153.352C12.5929 153.416 12.45 153.424 12.3228 153.366C12.2012 153.311 12.1527 153.227 12.146 153.146L10.651 153.269ZM10.5636 150.643C10.5253 151.421 10.5822 152.427 10.651 153.269L12.146 153.146C12.078 152.315 12.0286 151.39 12.0618 150.717L10.5636 150.643ZM11.5527 146.124C11.1762 147.237 10.642 149.052 10.5636 150.643L12.0618 150.717C12.1294 149.345 12.6048 147.695 12.9736 146.605L11.5527 146.124ZM11.522 145.906C11.5395 145.906 11.5387 145.909 11.5319 145.905C11.5277 145.903 11.5333 145.904 11.5427 145.92C11.5645 145.956 11.5836 146.033 11.5527 146.124L12.9736 146.605C13.1412 146.11 13.0847 145.571 12.8265 145.144C12.559 144.701 12.0717 144.384 11.4642 144.407L11.522 145.906ZM6.63488 150.952C6.63488 149.207 7.32619 147.987 8.26156 147.181C9.21662 146.358 10.4514 145.948 11.522 145.906L11.4642 144.407C10.0894 144.461 8.52012 144.979 7.28241 146.045C6.025 147.128 5.13488 148.759 5.13488 150.952H6.63488ZM29.4438 161.168C23.4403 163.418 18.1203 161.163 14.6725 157.644L13.6011 158.694C17.356 162.526 23.2789 165.08 29.9702 162.573L29.4438 161.168ZM29.4677 160.885C29.5332 160.935 29.5501 160.998 29.5429 161.051C29.5391 161.079 29.5287 161.102 29.5153 161.119C29.5035 161.135 29.4832 161.153 29.4438 161.168L29.9702 162.573C31.2273 162.102 31.3984 160.483 30.3861 159.699L29.4677 160.885ZM24.7782 158.039C26.4956 158.863 27.8277 159.615 29.4677 160.885L30.3861 159.699C28.6409 158.347 27.2118 157.543 25.4272 156.686L24.7782 158.039ZM25.2465 155.348C24.5182 155.402 24.0549 155.938 23.966 156.523C23.8788 157.097 24.1457 157.735 24.7782 158.039L25.4272 156.686C25.4195 156.682 25.4321 156.688 25.4421 156.708C25.4495 156.723 25.4509 156.736 25.449 156.748C25.4471 156.761 25.4396 156.785 25.414 156.81C25.4011 156.823 25.3865 156.832 25.3728 156.838C25.359 156.844 25.3521 156.844 25.3569 156.844L25.2465 155.348ZM28.026 155.382C27.0644 155.283 26.1824 155.279 25.2465 155.348L25.3569 156.844C26.2128 156.781 27.006 156.785 27.8723 156.875L28.026 155.382ZM28.2187 155.342C28.2945 155.392 28.2853 155.415 28.276 155.382C28.2669 155.351 28.275 155.325 28.2783 155.318C28.2838 155.307 28.2318 155.404 28.026 155.382L27.8723 156.875C28.6176 156.951 29.3061 156.607 29.6154 155.998C29.7706 155.693 29.8214 155.329 29.7176 154.968C29.6135 154.606 29.3721 154.307 29.05 154.093L28.2187 155.342ZM24.0306 153.872C25.6965 153.955 27.1303 154.617 28.2187 155.342L29.05 154.093C27.8182 153.273 26.125 152.475 24.1056 152.373L24.0306 153.872ZM14.6813 157.429C16.2254 156.196 19.9388 153.667 24.0306 153.872L24.1056 152.373C19.4274 152.139 15.3347 154.987 13.7451 156.257L14.6813 157.429ZM14.6725 157.644C14.6345 157.606 14.6236 157.565 14.6255 157.53C14.6275 157.497 14.642 157.461 14.6813 157.429L13.7451 156.257C12.9734 156.874 12.919 157.998 13.6011 158.694L14.6725 157.644ZM19.1697 192.138C22.628 192.197 25.3248 190.769 27.36 188.534C29.3765 186.319 30.7401 183.321 31.6195 180.198C32.501 177.068 32.9105 173.759 32.9848 170.872C33.0585 168.002 32.8029 165.478 32.3077 163.937L30.8797 164.396C31.2992 165.702 31.5573 168.03 31.4853 170.833C31.4137 173.618 31.0178 176.8 30.1756 179.792C29.3314 182.79 28.0531 185.544 26.2509 187.524C24.4673 189.482 22.1684 190.689 19.1956 190.638L19.1697 192.138ZM9.60888 163.824C7.56873 169.546 7.21914 176.485 8.69802 182.049C10.1713 187.593 13.5631 192.041 19.1697 192.138L19.1956 190.638C14.5838 190.559 11.5496 186.939 10.1477 181.664C8.75136 176.41 9.07732 169.781 11.0218 164.327L9.60888 163.824ZM12.2269 162.968C11.3187 162.386 10.0046 162.714 9.60888 163.824L11.0218 164.327C11.0441 164.265 11.0914 164.218 11.1665 164.195C11.2455 164.171 11.3384 164.18 11.4178 164.231L12.2269 162.968ZM21.5948 166.485C20.0396 166.548 18.2078 166.009 16.4695 165.256C14.7475 164.51 13.1966 163.589 12.2269 162.968L11.4178 164.231C12.4244 164.876 14.05 165.842 15.8731 166.632C17.6797 167.415 19.7613 168.061 21.6558 167.984L21.5948 166.485ZM29.8071 163.281C28.3797 164.371 25.3057 166.334 21.5948 166.485L21.6558 167.984C25.8252 167.814 29.2013 165.631 30.7176 164.473L29.8071 163.281ZM32.3077 163.937C32.1264 163.374 31.6783 163.029 31.1748 162.935C30.6961 162.846 30.1968 162.984 29.8071 163.281L30.7176 164.473C30.7576 164.443 30.7978 164.425 30.8323 164.416C30.8675 164.407 30.8909 164.408 30.9002 164.41C30.9081 164.412 30.9008 164.412 30.8885 164.401C30.8743 164.389 30.8747 164.381 30.8797 164.396L32.3077 163.937Z" fill="#224A95"/>
<path d="M38.7228 179.992C38.8146 181.151 40.5239 183.359 42.7934 183.248C46.3173 183.077 47.4072 180.276 48.2213 180.264C49.0355 180.252 49.5781 183.52 52.8348 183.52C55.551 183.52 57.7198 181.078 57.7198 181.078C57.7198 181.078 58.8055 183.249 61.5193 183.249C64.4176 183.249 68.0484 180.685 67.8984 178.114C67.8525 177.328 66.8747 177.434 66.5096 178.132C65.9697 179.163 65.3137 179.992 64.7761 179.992C63.9619 179.992 63.4192 178.635 63.4192 176.192C63.4192 173.478 64.5046 171.579 64.5046 170.222C64.5046 168.864 63.1478 168.051 61.5193 168.051C58.5342 168.051 56.4141 171.85 56.6346 175.378C56.7533 177.278 57.9915 180.264 55.8204 180.264C53.6493 180.264 55.2776 171.579 55.2776 169.95C55.2776 169.136 54.1918 168.051 52.292 168.051C50.4687 168.051 49.4983 169.3 48.764 170.493C46.593 174.021 48.4927 179.72 45.2361 180.264C43.893 180.488 46.5929 172.121 46.5929 171.036C46.5929 170.222 46.3728 169.353 46.0501 168.865C45.7787 168.454 45.1012 167.508 43.3362 167.508C41.8187 167.508 39.5367 168.594 39.5367 168.594C39.2655 173.75 38.3332 175.072 38.7228 179.992Z" fill="#EFC600" stroke="#224A95" stroke-width="1.5"/>
<path d="M84.8591 187.86C86.7588 174.833 87.2422 168.913 87.3015 157.736C87.3015 157.736 88.9301 156.653 91.644 156.653C94.3579 156.653 94.9007 159.096 94.9007 160.453C94.9007 164.252 92.7295 172.122 92.1868 175.65C98.7001 175.65 106.056 171.75 106.028 163.709C106.005 157.467 102.228 155.296 93.2723 155.296C85.4379 155.296 75.3606 159.911 75.3606 165.335C75.3606 168.267 78.0745 169.68 81.3312 169.68C83.7737 169.68 84.0451 168.866 85.402 168.866C85.9448 168.866 87.4665 173.479 81.6026 173.479C77.8031 173.479 72.9178 171.303 72.918 165.335C72.9181 159.367 81.8738 153.125 95.4433 153.125C109.013 153.125 113.898 158.098 113.898 162.081C113.898 176.736 91.9152 177.276 91.9152 177.276C90.8316 181.214 90.0155 184.603 90.2869 190.303H86.216C85.6731 190.303 84.6749 188.946 84.8591 187.86Z" fill="#EFC600" stroke="#224A95" stroke-width="1.5"/>
<path d="M66.6768 162.079C66.6768 164.25 63.9629 166.15 61.7917 166.15C59.7669 166.15 58.2637 164.647 58.2637 162.622C58.2637 160.179 61.1239 159.094 63.1487 159.094C65.0484 159.094 66.6768 160.451 66.6768 162.079Z" fill="#EFC600" stroke="#224A95" stroke-width="1.5"/>
<path fill-rule="evenodd" clip-rule="evenodd" d="M135.492 178.748C135.35 181.052 132.716 183.336 129.91 183.247C128.023 183.187 126.678 181.683 125.944 180.586C124.277 181.705 121.45 183.246 118.512 183.246C113.898 183.246 110.099 180.559 110.099 176.189C110.099 171.576 114.984 166.962 120.14 166.962C122.538 166.962 124.211 168.862 124.211 170.762C124.211 175.006 119.845 176.391 117.617 176.821C116.975 176.945 116.571 177.604 116.942 178.141C117.592 179.081 118.831 180.26 120.954 180.26C122.631 180.26 124.221 179.319 125.294 178.493C125.291 173.733 125.442 170.805 125.839 166.421C124.211 166.421 122.583 166.149 122.583 165.335C122.583 164.521 126.382 164.25 126.382 164.25C126.382 164.25 126.111 159.093 126.382 158.822C126.654 158.551 128.282 157.736 129.91 157.736C132.817 157.736 133.642 158.822 133.71 159.093C133.981 160.179 133.932 161.533 133.71 163.164C134.66 163.27 135.599 163.012 136.311 162.816C136.7 162.709 137.02 162.621 137.238 162.621C137.853 162.621 138.052 166.421 137.238 166.964C136.692 167.328 135.783 167.392 134.936 167.453C134.216 167.504 133.541 167.552 133.167 167.778C132.081 168.433 130.996 177.276 130.996 178.362C130.996 178.46 130.995 178.558 130.994 178.656C130.983 179.635 130.973 180.533 132.081 180.533C132.901 180.533 133.6 179.674 134.217 178.616C134.615 177.935 135.541 177.96 135.492 178.748ZM119.292 169.269C119.621 171.029 118.399 173.86 117.144 174.946C116.75 175.287 116.24 174.983 116.246 174.462C116.266 172.553 117.381 169.911 118.439 168.949C118.757 168.659 119.213 168.846 119.292 169.269Z" fill="#EFC600"/>
<path d="M129.91 183.247L129.934 182.497L129.91 183.247ZM135.492 178.748L134.744 178.702L135.492 178.748ZM125.944 180.586L126.567 180.169L126.149 179.545L125.526 179.963L125.944 180.586ZM117.617 176.821L117.759 177.557H117.759L117.617 176.821ZM116.942 178.141L117.559 177.715L117.559 177.715L116.942 178.141ZM125.294 178.493L125.752 179.088L126.044 178.862L126.044 178.493L125.294 178.493ZM125.839 166.421L126.586 166.488L126.66 165.671L125.839 165.671V166.421ZM126.382 164.25L126.436 164.998L127.17 164.945L127.131 164.21L126.382 164.25ZM126.382 158.822L126.912 159.353V159.353L126.382 158.822ZM133.71 159.093L132.982 159.275L132.982 159.275L133.71 159.093ZM133.71 163.164L132.967 163.063L132.863 163.825L133.627 163.91L133.71 163.164ZM136.311 162.816L136.509 163.539L136.311 162.816ZM137.238 166.964L137.654 167.588L137.238 166.964ZM134.936 167.453L134.883 166.705L134.936 167.453ZM133.167 167.778L132.779 167.136L133.167 167.778ZM130.994 178.656L131.744 178.664V178.664L130.994 178.656ZM134.217 178.616L133.57 178.238L133.57 178.238L134.217 178.616ZM117.144 174.946L116.653 174.379L116.653 174.379L117.144 174.946ZM119.292 169.269L118.555 169.407V169.407L119.292 169.269ZM116.246 174.462L116.996 174.47V174.47L116.246 174.462ZM118.439 168.949L117.934 168.394L117.934 168.394L118.439 168.949ZM129.886 183.997C131.497 184.048 133.031 183.42 134.178 182.473C135.317 181.533 136.154 180.208 136.241 178.794L134.744 178.702C134.689 179.592 134.137 180.561 133.223 181.317C132.316 182.065 131.129 182.535 129.934 182.497L129.886 183.997ZM125.32 181.003C126.075 182.131 127.608 183.924 129.886 183.997L129.934 182.497C128.439 182.45 127.281 181.235 126.567 180.169L125.32 181.003ZM125.526 179.963C123.89 181.062 121.218 182.496 118.512 182.496V183.996C121.681 183.996 124.664 182.349 126.362 181.209L125.526 179.963ZM118.512 182.496C116.344 182.496 114.414 181.864 113.043 180.77C111.685 179.687 110.849 178.135 110.849 176.189H109.349C109.349 178.614 110.412 180.59 112.107 181.942C113.789 183.284 116.066 183.996 118.512 183.996V182.496ZM110.849 176.189C110.849 174.143 111.94 172.024 113.696 170.396C115.447 168.772 117.781 167.712 120.14 167.712V166.212C117.343 166.212 114.656 167.459 112.676 169.296C110.7 171.128 109.349 173.622 109.349 176.189H110.849ZM120.14 167.712C122.13 167.712 123.461 169.282 123.461 170.762H124.961C124.961 168.442 122.947 166.212 120.14 166.212V167.712ZM123.461 170.762C123.461 172.574 122.549 173.772 121.328 174.601C120.081 175.448 118.548 175.877 117.474 176.085L117.759 177.557C118.914 177.334 120.678 176.856 122.171 175.842C123.69 174.811 124.961 173.194 124.961 170.762H123.461ZM117.474 176.085C116.945 176.187 116.488 176.513 116.241 176.967C115.983 177.441 115.964 178.046 116.326 178.568L117.559 177.715C117.546 177.695 117.55 177.693 117.55 177.702C117.55 177.708 117.548 177.702 117.558 177.685C117.58 177.644 117.647 177.579 117.759 177.557L117.474 176.085ZM116.326 178.568C117.062 179.632 118.503 181.01 120.954 181.01V179.51C119.159 179.51 118.123 178.529 117.559 177.715L116.326 178.568ZM120.954 181.01C122.886 181.01 124.644 179.94 125.752 179.088L124.837 177.899C123.799 178.698 122.375 179.51 120.954 179.51V181.01ZM125.092 166.353C124.693 170.758 124.541 173.709 124.544 178.494L126.044 178.493C126.041 173.757 126.191 170.851 126.586 166.488L125.092 166.353ZM121.833 165.335C121.833 165.829 122.093 166.198 122.399 166.438C122.688 166.665 123.05 166.809 123.4 166.906C124.106 167.102 124.998 167.171 125.839 167.171V165.671C125.052 165.671 124.316 165.604 123.801 165.461C123.54 165.388 123.393 165.311 123.326 165.259C123.276 165.219 123.333 165.249 123.333 165.335H121.833ZM126.382 164.25C126.329 163.502 126.329 163.502 126.329 163.502C126.329 163.502 126.328 163.502 126.328 163.502C126.328 163.502 126.328 163.502 126.327 163.502C126.327 163.502 126.326 163.502 126.325 163.502C126.323 163.502 126.319 163.502 126.315 163.503C126.307 163.503 126.296 163.504 126.281 163.505C126.251 163.508 126.208 163.511 126.154 163.516C126.046 163.525 125.893 163.539 125.709 163.559C125.343 163.598 124.849 163.66 124.351 163.749C123.862 163.836 123.329 163.957 122.902 164.124C122.692 164.206 122.461 164.318 122.27 164.475C122.083 164.629 121.833 164.914 121.833 165.335H123.333C123.333 165.553 123.202 165.651 123.222 165.634C123.238 165.621 123.304 165.578 123.451 165.52C123.737 165.408 124.153 165.308 124.614 165.225C125.066 165.145 125.522 165.088 125.868 165.051C126.041 165.032 126.184 165.019 126.284 165.01C126.334 165.006 126.372 165.003 126.398 165.001C126.411 165 126.421 164.999 126.427 164.998C126.43 164.998 126.433 164.998 126.434 164.998C126.435 164.998 126.435 164.998 126.436 164.998C126.436 164.998 126.436 164.998 126.436 164.998C126.436 164.998 126.436 164.998 126.436 164.998C126.436 164.998 126.436 164.998 126.382 164.25ZM125.852 158.291C125.744 158.399 125.691 158.514 125.667 158.57C125.639 158.637 125.621 158.7 125.609 158.749C125.585 158.847 125.57 158.952 125.559 159.05C125.537 159.249 125.524 159.498 125.518 159.766C125.505 160.307 125.514 160.992 125.531 161.657C125.548 162.324 125.573 162.982 125.595 163.472C125.605 163.718 125.615 163.921 125.622 164.064C125.625 164.135 125.628 164.191 125.63 164.23C125.631 164.249 125.632 164.264 125.632 164.274C125.633 164.279 125.633 164.282 125.633 164.285C125.633 164.286 125.633 164.287 125.633 164.288C125.633 164.288 125.633 164.289 125.633 164.289C125.633 164.289 125.633 164.289 125.633 164.289C125.633 164.289 125.633 164.289 126.382 164.25C127.131 164.21 127.131 164.21 127.131 164.21C127.131 164.21 127.131 164.21 127.131 164.21C127.131 164.21 127.131 164.21 127.131 164.209C127.131 164.209 127.131 164.208 127.131 164.207C127.131 164.204 127.131 164.201 127.13 164.196C127.13 164.187 127.129 164.172 127.128 164.154C127.126 164.116 127.124 164.061 127.12 163.991C127.113 163.851 127.104 163.649 127.093 163.407C127.072 162.922 127.047 162.274 127.03 161.618C127.013 160.96 127.005 160.305 127.017 159.802C127.024 159.549 127.035 159.351 127.05 159.216C127.057 159.146 127.064 159.113 127.066 159.106C127.067 159.102 127.063 159.121 127.05 159.152C127.041 159.173 127.003 159.262 126.912 159.353L125.852 158.291ZM129.91 156.986C128.98 156.986 128.075 157.217 127.378 157.474C127.026 157.603 126.716 157.744 126.468 157.875C126.246 157.993 126.006 158.138 125.852 158.291L126.912 159.353C126.894 159.37 126.96 159.312 127.17 159.201C127.355 159.103 127.604 158.989 127.897 158.881C128.488 158.663 129.212 158.486 129.91 158.486V156.986ZM134.437 158.911C134.376 158.668 134.217 158.438 134.041 158.251C133.847 158.046 133.579 157.837 133.225 157.65C132.514 157.274 131.454 156.986 129.91 156.986V158.486C131.273 158.486 132.079 158.741 132.524 158.976C132.747 159.094 132.88 159.207 132.951 159.282C133.04 159.376 133.009 159.383 132.982 159.275L134.437 158.911ZM134.453 163.265C134.678 161.615 134.745 160.142 134.437 158.911L132.982 159.275C133.217 160.216 133.186 161.451 132.967 163.063L134.453 163.265ZM136.112 162.093C135.382 162.294 134.578 162.506 133.792 162.419L133.627 163.91C134.741 164.033 135.816 163.73 136.509 163.539L136.112 162.093ZM137.238 161.871C137.043 161.871 136.842 161.909 136.673 161.947C136.497 161.987 136.302 162.041 136.112 162.093L136.509 163.539C136.709 163.485 136.868 163.441 137.004 163.41C137.147 163.378 137.215 163.371 137.238 163.371V161.871ZM137.654 167.588C137.92 167.41 138.08 167.149 138.179 166.933C138.282 166.707 138.353 166.453 138.403 166.203C138.503 165.701 138.537 165.117 138.524 164.571C138.51 164.026 138.449 163.475 138.339 163.039C138.285 162.827 138.208 162.596 138.092 162.401C137.999 162.245 137.733 161.871 137.238 161.871V163.371C137.07 163.371 136.946 163.303 136.881 163.251C136.849 163.226 136.829 163.203 136.819 163.191C136.813 163.184 136.81 163.179 136.807 163.176C136.806 163.174 136.805 163.173 136.805 163.172C136.804 163.171 136.804 163.171 136.804 163.171C136.804 163.171 136.804 163.171 136.805 163.172C136.805 163.172 136.806 163.174 136.807 163.175C136.808 163.178 136.81 163.182 136.813 163.188C136.819 163.2 136.825 163.216 136.833 163.237C136.849 163.28 136.867 163.337 136.885 163.408C136.959 163.701 137.013 164.134 137.024 164.607C137.036 165.079 137.005 165.547 136.932 165.909C136.896 166.091 136.854 166.224 136.815 166.309C136.771 166.405 136.759 166.382 136.822 166.34L137.654 167.588ZM134.989 168.201C135.405 168.171 135.882 168.138 136.327 168.061C136.765 167.986 137.251 167.856 137.654 167.588L136.822 166.34C136.679 166.435 136.438 166.52 136.072 166.583C135.715 166.645 135.314 166.674 134.883 166.705L134.989 168.201ZM133.554 168.42C133.611 168.386 133.752 168.335 134.035 168.291C134.305 168.25 134.621 168.227 134.989 168.201L134.883 166.705C134.531 166.73 134.15 166.756 133.809 166.809C133.481 166.859 133.097 166.944 132.779 167.136L133.554 168.42ZM131.746 178.362C131.746 177.889 132.006 175.463 132.414 173.032C132.616 171.827 132.849 170.655 133.094 169.751C133.217 169.298 133.337 168.934 133.45 168.676C133.506 168.546 133.553 168.461 133.587 168.41C133.627 168.349 133.622 168.379 133.554 168.42L132.779 167.136C132.576 167.258 132.435 167.434 132.34 167.576C132.239 167.727 132.152 167.899 132.074 168.077C131.92 168.431 131.777 168.874 131.646 169.359C131.382 170.332 131.14 171.561 130.935 172.784C130.528 175.21 130.246 177.749 130.246 178.362H131.746ZM131.744 178.664C131.745 178.567 131.746 178.465 131.746 178.362H130.246C130.246 178.455 130.245 178.549 130.244 178.647L131.744 178.664ZM132.081 179.783C131.903 179.783 131.848 179.747 131.848 179.747C131.846 179.746 131.846 179.745 131.843 179.742C131.839 179.737 131.829 179.722 131.817 179.69C131.789 179.619 131.764 179.501 131.751 179.312C131.739 179.125 131.741 178.916 131.744 178.664L130.244 178.647C130.239 179.085 130.22 179.721 130.419 180.233C130.53 180.521 130.721 180.806 131.037 181.008C131.345 181.207 131.706 181.283 132.081 181.283V179.783ZM133.57 178.238C133.273 178.747 132.984 179.158 132.7 179.435C132.415 179.715 132.214 179.783 132.081 179.783V181.283C132.768 181.283 133.327 180.922 133.75 180.507C134.176 180.091 134.545 179.544 134.865 178.995L133.57 178.238ZM136.241 178.794C136.262 178.449 136.179 178.097 135.943 177.817C135.708 177.537 135.384 177.405 135.075 177.383C134.477 177.341 133.892 177.686 133.57 178.238L134.865 178.995C134.899 178.936 134.938 178.905 134.964 178.89C134.993 178.873 134.997 178.881 134.969 178.879C134.935 178.877 134.858 178.857 134.795 178.782C134.732 178.706 134.747 178.653 134.744 178.702L136.241 178.794ZM117.635 175.513C118.387 174.863 119.063 173.763 119.51 172.636C119.954 171.515 120.231 170.211 120.03 169.131L118.555 169.407C118.682 170.086 118.513 171.078 118.115 172.084C117.719 173.085 117.157 173.943 116.653 174.379L117.635 175.513ZM115.496 174.454C115.49 174.963 115.742 175.437 116.178 175.682C116.638 175.939 117.206 175.884 117.635 175.513L116.653 174.379C116.66 174.374 116.694 174.349 116.755 174.342C116.814 174.336 116.87 174.35 116.912 174.373C116.996 174.42 116.996 174.481 116.996 174.47L115.496 174.454ZM117.934 168.394C117.284 168.986 116.689 170.007 116.258 171.068C115.822 172.143 115.507 173.376 115.496 174.454L116.996 174.47C117.004 173.638 117.257 172.596 117.648 171.632C118.045 170.655 118.536 169.874 118.944 169.503L117.934 168.394ZM120.03 169.131C119.945 168.677 119.644 168.304 119.226 168.142C118.797 167.976 118.303 168.058 117.934 168.394L118.944 169.503C118.925 169.52 118.888 169.544 118.833 169.554C118.78 169.564 118.728 169.558 118.685 169.541C118.594 169.506 118.561 169.438 118.555 169.407L120.03 169.131Z" fill="#224A95"/>
</svg>
