<svg width="102" height="67" viewBox="0 0 102 67" fill="none" xmlns="http://www.w3.org/2000/svg">
<rect x="1" y="1" width="100" height="65" rx="7" stroke="#224A95" stroke-width="2"/>
<path d="M60.2643 31.903C62.5585 30.7318 63.9939 28.6692 63.6586 25.2329C63.207 20.5369 59.1609 18.9622 54.0532 18.5138L54.0522 12H50.0947L50.0936 18.3425C49.0524 18.3425 47.9909 18.363 46.9343 18.3842L46.9334 12.0009L42.9795 12.0005L42.9788 18.5126C42.1219 18.5302 41.2803 18.5469 40.4586 18.5469V18.5276L35 18.5254L35.0007 22.7594C35.0007 22.7594 37.9233 22.7043 37.8751 22.7578C39.4775 22.7589 40.0007 23.6913 40.1512 24.4962L40.1524 31.9167V42.3402C40.0819 42.8453 39.785 43.6524 38.6645 43.6539C38.7155 43.6988 35.7857 43.6534 35.7857 43.6534L35.0007 48.3879H40.1499C41.1094 48.389 42.0522 48.404 42.977 48.4114L42.9805 54.9989L46.9334 55L46.9323 48.4815C48.0199 48.5038 49.0696 48.5134 50.095 48.5121L50.0938 55H54.0512L54.0534 48.4235C60.7055 48.0406 65.3626 46.3613 65.9415 40.1011C66.4082 35.061 64.041 32.8113 60.2643 31.903ZM47.0289 23.0451C49.2608 23.0451 56.2804 22.3329 56.2813 27.0052C56.2804 31.4846 49.263 30.9613 47.0289 30.9613V23.0451ZM47.0271 43.686L47.0289 34.9577C49.7105 34.9569 58.1216 34.1844 58.1227 39.3199C58.1238 44.2447 49.7105 43.684 47.0271 43.686Z" fill="#224A95"/>
</svg>
