<svg width="100" height="139" viewBox="0 0 100 139" fill="none" xmlns="http://www.w3.org/2000/svg">
<path fill-rule="evenodd" clip-rule="evenodd" d="M98.4948 66.6273C98.4948 94.0217 76.7832 116.229 50.0006 116.229C23.2184 116.229 1.50684 94.0217 1.50684 66.6273C1.50684 39.2323 23.2184 17.0241 50.0006 17.0241C76.7832 17.0241 98.4948 39.2323 98.4948 66.6273Z" fill="#EFC600"/>
<path d="M3.48313 78.9131C3.48313 78.9131 -0.0275006 27.1861 47.6356 25.708L44.3105 20.1658L18.4471 28.8488L11.0573 37.3466L4.59157 49.7246L0.896484 64.1343L2.00492 73.7406" fill="#F3DB65"/>
<path d="M16.7864 32.7901C8.27798 41.4958 3.01292 53.5157 3.01292 66.8131C3.01292 80.1077 8.27798 92.1291 16.7864 100.833C25.2988 109.537 37.0303 114.908 49.9999 114.908C62.9698 114.908 74.7021 109.537 83.2138 100.833C91.7216 92.1291 96.9878 80.1077 96.9878 66.8131C96.9878 53.5157 91.7216 41.4958 83.2138 32.7901C74.7021 24.0878 62.9698 18.7168 49.9999 18.7157C37.0303 18.7168 25.2988 24.0878 16.7864 32.7901ZM14.6327 102.939C5.59024 93.6912 0 80.9107 0 66.8131C0 52.7132 5.59024 39.934 14.6327 30.6857C23.673 21.4358 36.1871 15.7024 49.9999 15.7041C63.8128 15.7024 76.3282 21.4358 85.367 30.6857C94.4101 39.934 100.001 52.7143 100 66.8131C100.001 80.9107 94.4101 93.6912 85.367 102.939C76.3282 112.188 63.8128 117.921 49.9999 117.921C36.1871 117.921 23.673 112.188 14.6327 102.939Z" fill="#231F20"/>
<path fill-rule="evenodd" clip-rule="evenodd" d="M70.4138 66.9023L63.0238 68.0107L53.0478 69.1192L46.5816 69.3037L40.3007 69.1192L35.4972 67.6411L31.2481 63.0227L27.9228 53.601L27.1839 51.5687L22.7502 50.0911L20.1637 45.8419L18.3164 39.7455L20.3488 34.3879L25.1517 32.7252L29.0312 34.573L30.879 38.6371L33.0959 38.2674L33.8345 37.3441L33.0959 33.0949L32.9108 27.7373L34.0192 20.3479L33.9759 16.1269L37.3445 10.7416L43.2563 6.49238L53.602 2.05862L65.0556 3.72128L75.0315 10.9261L79.6504 18.3155L82.6061 23.6732L83.3448 36.9744L81.128 48.4285L77.0639 58.589L73.1843 63.9466" fill="#F0D6B7"/>
<path fill-rule="evenodd" clip-rule="evenodd" d="M64.1329 98.8629L37.7147 99.9714V104.405L39.9315 119.923L38.8231 121.217L20.3494 114.935L19.0559 112.718L17.2085 91.8432L12.9601 79.2807L12.0361 76.325L26.8149 66.1645L31.4338 64.3168L35.4978 69.3047L39.0078 72.4455L43.0724 73.7385L44.9195 74.2927L47.1364 83.899L48.799 85.9312L53.0484 84.4532L50.0922 90.1805L66.1646 97.7545L64.1329 98.8629Z" fill="#224A95"/>
<path fill-rule="evenodd" clip-rule="evenodd" d="M20.3487 34.3885L25.1516 32.7258L29.0311 34.5736L30.8789 38.6377L33.0957 38.268L33.65 36.0512L32.5415 31.8025L33.65 21.6415L32.726 16.0993L36.0513 12.2197L43.2561 6.49298L41.2239 3.72188L31.0633 8.70986L26.8142 12.0352L24.4127 17.2077L20.7178 22.1957L19.6094 28.1075L20.3487 34.3885Z" fill="#3E4346"/>
<path fill-rule="evenodd" clip-rule="evenodd" d="M27.9234 17.0229C27.9234 17.0229 30.6945 10.1877 41.7789 6.86241C52.8633 3.5371 42.3332 4.46043 42.3332 4.46043L30.3254 9.07929L25.7066 13.6976L23.6748 17.3926L27.9234 17.0229Z" fill="#DCD9D8"/>
<path fill-rule="evenodd" clip-rule="evenodd" d="M22.3805 33.0957C22.3805 33.0957 18.5009 20.1635 33.2802 18.3163L32.726 16.0994L22.5656 18.5014L19.6094 28.1077L20.3487 34.3887L22.3805 33.0957Z" fill="#DCD9D8"/>
<path fill-rule="evenodd" clip-rule="evenodd" d="M28.293 50.2758L30.7119 47.932C30.7119 47.932 31.8036 48.059 31.9881 49.3519C32.1725 50.6455 32.7267 62.2841 40.6705 68.5656C41.395 69.1387 34.7592 67.6412 34.7592 67.6412L28.8472 58.4046" fill="#F7E4CD"/>
<path fill-rule="evenodd" clip-rule="evenodd" d="M62.2855 46.7666C62.2855 46.7666 62.7162 41.1668 64.2242 41.5974C65.7322 42.028 65.7322 43.5361 65.7322 43.5361C65.7322 43.5361 62.0699 45.9053 62.2855 46.7666Z" fill="#F7E4CD"/>
<path d="M77.6182 26.2605C77.6182 26.2605 74.5733 26.9034 74.2929 29.5858C74.0124 32.2688 77.6182 30.14 78.1724 29.9555" fill="#F7E4CD"/>
<path d="M55.2648 26.4458C55.2648 26.4458 51.2002 27 51.2002 29.586C51.2002 32.1725 55.8192 31.988 57.1122 30.8795" fill="#F7E4CD"/>
<path fill-rule="evenodd" clip-rule="evenodd" d="M30.1396 38.4527C30.1396 38.4527 23.1191 34.2035 22.3805 38.2682C21.6416 42.3323 19.9785 45.2885 23.4889 49.5371L21.0874 48.7983L18.8705 43.0716L18.1318 37.5294L22.3805 33.0951L27.1838 33.4648L29.9549 35.6816L30.1396 38.4527Z" fill="#F7E4CD"/>
<path fill-rule="evenodd" clip-rule="evenodd" d="M33.4651 26.8145C33.4651 26.8145 36.6057 10.5575 52.4937 7.41678C65.5739 4.83135 72.4451 7.97099 75.0316 10.9266C75.0316 10.9266 63.393 -2.92828 52.3085 1.32037C41.2242 5.56957 33.096 13.3286 33.2804 18.3161C33.595 26.8111 33.4651 26.8145 33.4651 26.8145Z" fill="#F7E4CD"/>
<path fill-rule="evenodd" clip-rule="evenodd" d="M76.3254 12.7737C76.3254 12.7737 70.9683 12.5892 70.7832 17.3926C70.7832 17.3926 70.7826 18.1313 71.1523 18.8701C71.1523 18.8701 75.4021 14.0667 77.988 16.6532" fill="#F7E4CD"/>
<path fill-rule="evenodd" clip-rule="evenodd" d="M52.8661 19.3708C52.8661 19.3708 51.9438 11.998 45.658 16.2843C41.5938 19.0554 41.9635 22.935 42.7022 23.6737C43.4411 24.4131 43.2402 25.9012 43.8027 24.8797C44.3649 23.8583 44.1797 20.533 46.2122 19.6097C48.2444 18.6858 51.5757 17.6538 52.8661 19.3708Z" fill="#F7E4CD"/>
<path fill-rule="evenodd" clip-rule="evenodd" d="M35.4978 69.304L18.1325 77.0631C18.1325 77.0631 25.3374 105.698 21.6423 114.565L19.0559 113.642L18.8712 102.742L14.0686 82.0516L12.0361 76.3243L30.1403 64.132L35.4978 69.304Z" fill="#3E6BBF"/>
<path fill-rule="evenodd" clip-rule="evenodd" d="M37.2835 85.1421L39.7472 88.148V99.2324H36.791C36.791 99.2324 36.4219 91.4734 36.4219 90.5494C36.4219 89.6256 36.791 86.3003 36.791 86.3003" fill="#3E6BBF"/>
<path fill-rule="evenodd" clip-rule="evenodd" d="M37.3445 100.895L29.0312 101.264L31.4332 102.927L37.3445 103.851" fill="#3E6BBF"/>
<path fill-rule="evenodd" clip-rule="evenodd" d="M65.7949 99.0482L72.6301 98.8635L74.2928 115.86L67.2725 116.783L65.7949 99.0482Z" fill="#224A95"/>
<path fill-rule="evenodd" clip-rule="evenodd" d="M67.6426 99.0479L77.9882 98.4936C77.9882 98.4936 82.2368 87.7788 82.2368 87.2246C82.2368 86.6704 85.9318 71.7066 85.9318 71.7066L77.6185 63.0242L75.9559 61.546L71.5221 65.9798V83.1606L67.6426 99.0479Z" fill="#224A95"/>
<path fill-rule="evenodd" clip-rule="evenodd" d="M72.2604 97.7549L65.7949 99.048L66.7183 104.221C69.1197 105.329 73.1843 102.373 73.1843 102.373" fill="#3E6BBF"/>
<path fill-rule="evenodd" clip-rule="evenodd" d="M72.4463 65.425L85.3779 75.0312L85.7476 70.5975L75.9562 61.5454L72.4463 65.425Z" fill="#3E6BBF"/>
<path fill-rule="evenodd" clip-rule="evenodd" d="M43.7555 135.444L39.9307 119.923L38.0284 108.472L37.7139 99.9715L55.0248 99.0499L65.7947 99.0481L64.8154 118.448L66.4781 133.411L66.2935 136.183L52.2537 137.291L43.7555 135.444Z" fill="white"/>
<path fill-rule="evenodd" clip-rule="evenodd" d="M63.3927 98.8633C63.3927 98.8633 62.4694 118.077 65.2405 131.747C65.2405 131.747 59.6983 135.257 51.5693 136.181L67.0877 135.626L68.9349 134.518L66.718 104.221L66.1638 97.7544" fill="#DCD9D8"/>
<path fill-rule="evenodd" clip-rule="evenodd" d="M74.6083 114.382L81.8132 112.35L95.4835 111.611L97.5159 105.33L93.8209 94.4299L89.5722 93.8757L83.6604 95.723L77.9885 98.4924L74.9774 97.9399L72.6309 98.8619" fill="white"/>
<path fill-rule="evenodd" clip-rule="evenodd" d="M74.4775 110.686C74.4775 110.686 79.2804 108.469 80.0197 108.654L77.988 98.4931L80.3894 97.5697C80.3894 97.5697 82.0521 107.176 82.0521 108.284C82.0521 108.284 92.3971 108.839 93.321 108.839C93.321 108.839 95.5379 104.589 94.9837 100.156L97.016 106.067L97.2005 109.393L94.2449 113.827L90.9196 114.565L85.3774 114.381L83.5302 111.979L77.0641 112.903L75.0318 113.642" fill="#DCD9D8"/>
<path d="M67.2176 97.5713L63.1535 87.2256L58.9043 81.1292C58.9043 81.1292 59.8276 78.5427 61.1212 78.5427C62.4147 78.5427 65.3704 78.5427 65.3704 78.5427L69.4345 80.0208L69.0654 86.8561L67.2176 97.5713Z" fill="white"/>
<path fill-rule="evenodd" clip-rule="evenodd" d="M68.0125 94.0595C68.0125 94.0595 62.8395 84.084 62.8395 82.606C62.8395 82.606 63.7628 80.3891 65.0563 80.9433C66.3499 81.4975 69.121 82.9751 69.121 82.9751V79.4652L62.8395 78.1717L58.5908 78.7259L65.7957 95.7221L67.2732 95.9072" fill="#DCD9D8"/>
<path d="M45.4185 69.6761L40.3006 69.1197L35.4971 67.6416V69.3043L37.8441 71.8925L45.2336 75.2178" fill="white"/>
<path fill-rule="evenodd" clip-rule="evenodd" d="M37.1607 70.2296C37.1607 70.2296 42.888 72.6316 44.7353 72.0773L44.9191 74.292L39.7473 73.1858L36.6064 70.9689L37.1607 70.2296Z" fill="#DCD9D8"/>
<path fill-rule="evenodd" clip-rule="evenodd" d="M74.5879 79.1719C71.4533 79.0799 68.6212 78.7074 66.1416 78.008C66.3101 76.9916 65.9947 75.994 66.248 75.2619C66.9391 74.7642 68.0975 74.7719 69.1422 74.655C68.2388 74.2111 66.9696 74.0354 65.9271 74.292C65.9027 73.5865 65.5863 73.1492 65.3945 72.5972C67.1569 71.9681 71.3175 67.8442 73.6579 69.2098C74.773 69.8593 75.2469 73.5693 75.3333 75.3733C75.4054 76.8696 75.1976 78.3793 74.5879 79.1719Z" fill="#EFC600"/>
<path d="M74.5879 79.1719C71.4533 79.0799 68.6212 78.7074 66.1416 78.008C66.3101 76.9916 65.9947 75.994 66.248 75.2619C66.9391 74.7642 68.0975 74.7719 69.1422 74.655C68.2388 74.2111 66.9696 74.0354 65.9271 74.292C65.9027 73.5865 65.5863 73.1492 65.3945 72.5972C67.1569 71.9681 71.3175 67.8442 73.6579 69.2098C74.773 69.8593 75.2469 73.5693 75.3333 75.3733C75.4054 76.8696 75.1976 78.3793 74.5879 79.1719Z" stroke="#EFC600" stroke-width="2.5"/>
<path fill-rule="evenodd" clip-rule="evenodd" d="M59.5978 74.0479C59.5895 74.2851 59.5795 74.524 59.5701 74.7634C58.5913 75.4063 57.0112 75.3985 55.9372 75.9389C57.5206 76.0082 58.767 76.3895 59.8455 76.9271C59.8217 77.5245 59.799 78.1214 59.7757 78.7188C57.9817 79.947 56.3429 81.7759 54.2306 82.9276C53.2319 83.4723 49.7269 84.8739 48.6644 84.6262C48.0632 84.4866 48.0091 83.7406 47.7687 83.0374C47.2568 81.5315 46.0779 79.1345 45.9751 76.8678C45.8442 74.0047 45.5551 69.2062 48.6406 69.7959C51.1298 70.2709 54.0249 71.4176 55.9521 72.4706C57.1298 73.1146 57.811 73.9104 59.5978 74.0479Z" fill="#EFC600"/>
<path d="M59.5978 74.0479C59.5895 74.2851 59.5795 74.524 59.5701 74.7634C58.5913 75.4063 57.0112 75.3985 55.9372 75.9389C57.5206 76.0082 58.767 76.3895 59.8455 76.9271C59.8217 77.5245 59.799 78.1214 59.7757 78.7188C57.9817 79.947 56.3429 81.7759 54.2306 82.9276C53.2319 83.4723 49.7269 84.8739 48.6644 84.6262C48.0632 84.4866 48.0091 83.7406 47.7687 83.0374C47.2568 81.5315 46.0779 79.1345 45.9751 76.8678C45.8442 74.0047 45.5551 69.2062 48.6406 69.7959C51.1298 70.2709 54.0249 71.4176 55.9521 72.4706C57.1298 73.1146 57.811 73.9104 59.5978 74.0479V74.0479Z" stroke="#EFC600" stroke-width="2.5"/>
<path fill-rule="evenodd" clip-rule="evenodd" d="M61.3796 77.4639C61.1059 75.9043 60.7894 75.4593 60.9119 74.0987C65.0713 71.3254 65.8522 78.8622 61.3796 77.4639Z" fill="#EFC600"/>
<path d="M61.3796 77.4639C61.1059 75.9043 60.7894 75.4593 60.9119 74.0987C65.0713 71.3254 65.8522 78.8622 61.3796 77.4639Z" stroke="#EFC600" stroke-width="2.5"/>
<path fill-rule="evenodd" clip-rule="evenodd" d="M67.402 78.7285C67.402 78.7285 66.1084 76.8807 67.0323 76.3265C67.9562 75.7723 68.8801 76.3271 69.4343 75.4032C69.9885 74.4793 69.4343 73.9251 69.6188 72.8167C69.8034 71.7082 70.7278 71.5231 71.6512 71.3386C72.5745 71.154 75.1616 70.7843 75.5307 71.7082L74.4223 68.3829L72.2054 67.6441L65.1851 71.7082L64.8154 73.7405V77.8046" fill="#F3DB65"/>
<path fill-rule="evenodd" clip-rule="evenodd" d="M48.0044 84.8242C47.7825 81.9411 47.5476 79.0619 47.2863 76.1817C46.8953 71.8809 48.3193 72.6313 52.0473 72.6313C52.6167 72.6313 55.5533 73.3103 55.7633 73.7398C56.7709 75.7976 54.0785 75.3404 56.9239 76.8922C59.3258 78.2018 63.5689 76.0969 62.5985 73.1856C62.0554 72.5382 59.7687 72.9838 58.949 72.5587C57.5058 71.8105 56.0626 71.0623 54.6192 70.3141C52.783 69.3614 48.5391 67.9726 46.5814 69.3038C41.6209 72.6773 46.8944 81.1065 48.664 84.6257" fill="#F3DB65"/>
<path fill-rule="evenodd" clip-rule="evenodd" d="M52.8658 19.37C47.8306 18.1972 45.3286 21.4771 43.8024 24.8789C42.4395 24.5486 42.9818 22.6953 43.3261 21.7509C44.2273 19.2724 47.8594 15.9732 50.8271 16.4204C52.1042 16.6127 53.8324 17.7805 52.8658 19.37Z" fill="#231F20"/>
<path fill-rule="evenodd" clip-rule="evenodd" d="M77.3997 25.1044C77.4789 25.1077 77.5593 25.1105 77.6385 25.1138C78.7763 27.4776 79.7612 29.9815 81.1966 32.0682C80.2351 34.3078 73.9153 36.2897 74.0128 32.2683C75.3795 31.6708 77.7389 32.1463 78.9504 31.3832C78.2498 29.4606 77.2389 27.824 77.3997 25.1044Z" fill="#231F20"/>
<path fill-rule="evenodd" clip-rule="evenodd" d="M55.4443 25.1662C56.524 27.1454 56.8753 29.2248 58.41 30.7206C59.1011 31.394 60.4451 32.2148 59.7789 34.0875C59.6231 34.5292 58.4853 35.5141 57.8286 35.7075C55.4294 36.4158 49.8388 35.8538 51.7321 32.8627C53.7162 32.9552 56.3832 34.1512 57.8663 32.7108C56.7274 30.8902 54.6969 27.2883 55.4443 25.1662Z" fill="#231F20"/>
<path fill-rule="evenodd" clip-rule="evenodd" d="M76.4984 45.2807C72.886 47.6013 68.8579 50.1246 62.9389 49.5394C61.6742 48.4398 61.192 45.9929 62.4207 44.3768C63.0603 45.4764 62.6584 47.4987 64.4408 47.803C67.7994 48.3777 71.7083 45.7485 74.1241 44.8296C75.6222 42.304 73.995 41.3752 72.6455 39.7496C69.8827 36.4193 66.1766 32.2915 66.3113 27.3058C67.4281 26.496 67.5245 28.5417 67.6847 28.9141C69.1273 32.2904 72.758 36.6083 75.4077 39.498C76.0584 40.2096 77.1297 40.8924 77.2488 41.363C77.5924 42.7313 76.3549 44.3707 76.4984 45.2807Z" fill="#231F20"/>
<path fill-rule="evenodd" clip-rule="evenodd" d="M28.8757 42.8386C27.7435 42.1923 27.474 39.3459 26.1447 39.265C24.245 39.1497 24.5913 42.9577 24.5989 45.1846C23.2913 43.9974 23.0614 40.3424 24.022 38.4652C22.9272 37.9276 22.4383 39.0582 21.8311 39.4567C22.6115 33.787 30.1249 36.8269 28.8757 42.8386Z" fill="#231F20"/>
<path fill-rule="evenodd" clip-rule="evenodd" d="M78.7987 47.6417C77.1172 50.8424 74.7385 54.3672 69.8043 54.4697C69.704 53.4361 69.6269 51.8632 69.8098 51.2409C73.5818 50.8784 75.9107 48.9586 78.7987 47.6417Z" fill="#231F20"/>
<path fill-rule="evenodd" clip-rule="evenodd" d="M55.1592 49.717C58.3063 51.3719 64.0901 51.5498 68.3676 51.4245C68.597 52.3617 68.5915 53.5195 68.6003 54.6623C63.1019 54.9366 56.6009 53.576 55.1592 49.717Z" fill="#231F20"/>
<path fill-rule="evenodd" clip-rule="evenodd" d="M54.5609 52.8029C56.7372 58.2669 64.2169 57.6379 70.5245 57.4871C70.2468 58.1965 69.6449 59.0345 68.8967 59.3377C66.8755 60.1601 61.3006 60.7842 58.4946 59.2939C56.715 58.3479 55.5717 56.2102 54.5966 54.9571C54.1258 54.3519 51.7811 52.8062 54.5609 52.8029Z" fill="#231F20"/>
<path fill-rule="evenodd" clip-rule="evenodd" d="M76.2363 82.9424C73.6825 87.3165 71.2389 91.8089 68.209 95.667C69.4793 91.9321 70.0229 85.6808 70.2147 80.9152C72.8722 79.6716 75.1478 81.1951 76.2363 82.9424Z" fill="#6C8FD1"/>
<path fill-rule="evenodd" clip-rule="evenodd" d="M89.9789 98.6636C87.1197 99.236 85.1107 102.015 82.3213 101.837C83.8543 99.6754 86.5406 98.7645 89.9789 98.6636Z" fill="#231F20"/>
<path fill-rule="evenodd" clip-rule="evenodd" d="M91.2401 103.137C88.9096 103.383 86.1723 103.761 83.8086 103.566C84.9276 101.857 89.2388 102.447 91.2401 103.137Z" fill="#231F20"/>
<path fill-rule="evenodd" clip-rule="evenodd" d="M92.0479 106.996C89.4286 107.053 86.1731 107.001 83.6836 106.792C85.1562 105.21 90.3492 106.205 92.0479 106.996Z" fill="#231F20"/>
<path fill-rule="evenodd" clip-rule="evenodd" d="M71.3078 117.554C71.6836 120.843 72.9876 124.176 72.8242 127.778C71.376 128.267 70.5441 128.694 68.6038 128.691C68.4669 125.63 68.0573 120.949 68.1798 118.031C69.1342 118.094 70.5413 117.349 71.3078 117.554Z" fill="#DCD9D8"/>
<path fill-rule="evenodd" clip-rule="evenodd" d="M67.0857 69.0748C65.7705 69.9333 64.6504 71.0051 63.3874 71.9218C60.5864 72.0604 59.0578 71.7278 57 70.1195C57.0338 69.9903 57.2405 70.048 57.2483 69.8895C60.2466 71.2257 64.058 69.3452 67.0857 69.0748Z" fill="#F0D6B7"/>
<path fill-rule="evenodd" clip-rule="evenodd" d="M51.3457 89.5124C52.1695 85.9426 55.3974 84.0938 58.3286 82.128C61.3541 85.9677 63.1941 90.9057 65.2203 95.6709C60.433 94.2278 55.5414 91.8862 51.3457 89.5124Z" fill="#6C8FD1"/>
<path fill-rule="evenodd" clip-rule="evenodd" d="M68.1805 118.031C68.058 120.949 68.4675 125.629 68.6044 128.691C70.5448 128.694 71.3766 128.267 72.8248 127.778C72.9883 124.176 71.6842 120.843 71.3085 117.553C70.542 117.349 69.1348 118.094 68.1805 118.031ZM37.9677 101.432C39.2472 113.195 41.1003 123.082 44.4992 133.498C52.0429 135.788 61.1369 135.988 67.8047 133.921C66.5804 128.042 67.1152 120.885 66.3997 114.612C65.8605 109.897 66.1354 105.153 65.3961 100.342C57.3167 98.6613 45.8967 99.9492 37.9677 101.432ZM67.3064 100.416C67.2383 105.468 67.5326 110.451 67.9183 115.508C69.8581 115.217 71.1743 115.023 72.9767 114.628C72.3914 109.758 72.4635 104.279 71.2713 99.9719C69.8935 99.9851 68.6804 99.9559 67.3064 100.416ZM77.1466 99.6017C76.2261 99.3906 75.1542 99.5935 74.2747 99.6106C74.6881 103.728 75.6912 108.272 76.0443 112.595C77.4282 112.638 78.1675 111.985 79.3058 111.766C79.3668 107.972 78.9744 102.744 77.1466 99.6017ZM92.0462 113.215C94.9309 112.514 96.7449 108.981 95.938 105.353C95.3965 102.914 94.4322 98.3224 93.4002 96.7624C92.6376 95.6085 90.5698 94.0979 88.9188 95.1552C86.233 96.875 81.5017 97.3742 79.5431 99.456C80.5251 102.726 80.8299 107.217 81.2351 111.36C84.5903 111.57 88.7187 110.437 91.5092 111.639C89.5611 112.27 87.0333 112.275 85.3502 113.195C86.7257 113.859 89.9463 113.725 92.0462 113.215ZM65.2204 95.6717C63.1941 90.9065 61.3541 85.9686 58.3287 82.1288C55.3974 84.0946 52.1696 85.9435 51.3458 89.5132C55.5415 91.887 60.433 94.2286 65.2204 95.6717ZM70.215 80.9156C70.0232 85.6813 69.4795 91.9325 68.2093 95.6674C71.2392 91.8093 73.6827 87.3169 76.2366 82.9429C75.1481 81.1955 72.8725 79.672 70.215 80.9156ZM64.5531 78.9038C63.4053 78.7802 62.431 80.2234 60.9385 79.5994C60.5965 79.9773 60.2856 80.3869 59.937 80.756C63.2335 84.7287 64.7315 90.3651 67.2776 95.0337C68.6438 90.5491 68.4864 85.6358 68.7873 80.7411C66.9102 80.8602 65.8688 79.0435 64.5531 78.9038ZM60.9124 74.0987C60.7899 75.4594 61.1064 75.9044 61.3802 77.464C65.8527 78.8623 65.0718 71.3254 60.9124 74.0987ZM55.9527 72.4704C54.0255 71.4174 51.1304 70.2708 48.6412 69.7958C45.5557 69.2055 45.8448 74.0045 45.9757 76.8676C46.0785 79.1344 47.2573 81.5314 47.7693 83.0372C48.0096 83.7404 48.0638 84.4865 48.665 84.6261C49.7275 84.8738 53.2325 83.4722 54.2312 82.9275C56.3434 81.7758 57.9823 79.9469 59.7763 78.7187C59.7996 78.1213 59.8223 77.5244 59.8461 76.9269C58.7676 76.3893 57.5212 76.008 55.9378 75.9388C57.0118 75.3984 58.5919 75.4061 59.5707 74.7632C59.5801 74.5238 59.5901 74.285 59.5984 74.0478C57.8116 73.9103 57.1304 73.1144 55.9527 72.4704ZM37.5451 69.1268C35.9456 70.7507 42.0312 72.9643 43.9688 73.0834C43.958 72.0559 44.5544 71.0871 44.4343 70.35C42.133 69.946 39.1086 70.2126 37.5451 69.1268ZM57.2485 69.8895C57.2407 70.048 57.034 69.9903 57.0002 70.1194C59.058 71.7278 60.5865 72.0603 63.3876 71.9218C64.6506 71.0051 65.7707 69.9332 67.0859 69.0747C64.0582 69.3452 60.2468 71.2257 57.2485 69.8895ZM75.3338 75.3734C75.2473 73.5695 74.7735 69.8595 73.6584 69.21C71.3179 67.8438 67.1574 71.9683 65.395 72.5974C65.5867 73.1494 65.9032 73.5866 65.9276 74.2922C66.97 74.0356 68.2392 74.2113 69.1426 74.6552C68.0979 74.7721 66.9396 74.7644 66.2484 75.262C65.9952 75.9942 66.3105 76.9918 66.142 78.0082C68.6216 78.7076 71.4537 79.0801 74.5883 79.1721C75.198 78.3795 75.4058 76.8698 75.3338 75.3734ZM34.8524 70.6975C34.3501 70.3395 30.9523 65.9185 30.4868 66.1019C24.3384 68.5266 18.5895 72.7193 13.4521 76.6847C18.3503 87.195 20.3275 100.072 20.6769 112.483C26.2879 115.107 31.2164 118.89 38.8304 119.285C37.9493 113.051 37.145 107.49 36.6449 101.621C34.7318 100.814 31.9871 101.657 30.1967 101.371C30.1815 99.2131 32.931 100.426 33.16 98.975C33.3326 97.8776 31.6472 97.7944 32.196 96.0664C33.5956 96.5752 34.3306 97.6989 35.8233 98.1209C37.1872 95.137 35.8042 89.8574 36.0008 87.3634C36.0381 86.8952 36.2346 84.7692 37.2836 85.1422C38.2119 85.4724 37.2305 90.7963 37.3323 93.1567C37.4249 95.3314 37.0696 97.4357 37.9503 98.8009C45.3078 97.7994 52.7844 97.1521 60.745 96.9337C58.9937 96.1822 56.9132 95.471 54.6321 94.1853C53.3955 93.4882 49.4976 92.0377 49.1408 90.8632C48.5715 88.9917 50.6346 87.9947 50.9875 86.3903C47.2736 88.4158 46.549 84.4488 45.6704 81.6383C44.8744 79.0928 44.4213 77.1913 44.226 75.7232C41.0267 74.1979 37.6061 72.6533 34.8524 70.6975ZM72.0844 66.6367C77.207 64.1527 78.1304 75.9205 76.1224 79.7113C76.4328 80.8419 77.5002 81.2748 77.9358 82.2912C75.0772 87.4121 71.902 92.1923 68.9852 97.253C71.1549 95.9023 74.2541 97.0114 76.8074 96.0004C77.7407 95.6313 78.4163 93.4947 79.123 91.7855C81.0666 87.083 83.1072 81.1545 84.0151 76.667C84.2201 75.6445 84.7788 73.4165 84.6535 72.5065C84.4302 70.8771 82.2194 69.6689 81.0949 68.6613C79.0232 66.8002 77.7186 65.1625 75.5577 63.4223C74.6814 64.7158 72.801 65.5848 72.0844 66.6367ZM23.1369 21.2085C20.6959 23.8942 21.2069 28.9265 21.5024 32.5068C25.9145 29.7313 31.7706 32.7263 31.7154 37.4471C33.8219 37.3911 32.5023 34.8162 32.1213 33.1575C30.8761 27.7394 34.2191 21.8531 32.2729 16.8983C28.494 17.1849 25.3895 18.7284 23.1369 21.2085ZM40.6024 5.62053C35.0764 7.18675 27.9943 11.2021 25.7235 16.1662C27.4819 15.9107 28.7025 15.024 30.437 14.9142C31.0925 14.8715 31.9514 15.1891 32.7048 15.0018C34.2061 14.6294 35.4733 11.263 36.6059 10.0105C37.71 8.78732 39.0371 8.26471 39.9453 7.14961C40.5288 6.86807 41.3915 6.88747 41.4246 6.01125C41.1717 5.74078 40.9054 5.53462 40.6024 5.62053ZM69.3681 7.09363C63.6325 3.85754 53.9242 1.42342 47.823 4.46497C42.9 6.9196 36.2455 10.9809 33.9766 16.1274C36.0961 21.0938 33.3488 25.6445 33.1735 30.6867C33.0804 33.3697 34.4367 35.7119 34.5406 38.6326C33.8154 39.8292 31.5995 39.9766 30.0657 39.8945C29.5494 37.3108 28.6455 34.4067 25.9849 34.1152C22.22 33.7034 19.4674 36.8192 19.2963 40.0752C19.0939 43.9043 22.2373 50.2507 26.6928 49.8101C28.4139 49.6399 28.8367 47.9147 30.712 47.9324C31.7283 49.9603 29.1441 50.5971 28.8783 52.0475C28.809 52.4221 29.0926 53.8864 29.2575 54.573C30.0668 57.9166 31.8708 62.244 33.6465 64.7895C35.9002 68.0184 40.3279 68.505 45.0913 68.8215C45.9421 66.9887 49.0763 67.1394 51.1185 67.6188C48.671 66.6495 46.3957 64.2996 44.51 62.2196C42.344 59.8331 40.1499 57.2732 40.0391 54.1541C44.1323 59.8326 47.5139 64.7917 54.9569 67.2896C60.5888 69.1784 67.1662 66.4239 71.4936 63.3851C73.2892 62.1221 74.3611 60.118 75.6375 58.2835C80.4132 51.414 82.6417 41.6087 82.1518 32.105C81.95 28.1856 81.9589 24.2794 80.6437 21.6424C79.2693 18.8852 74.6205 16.4184 71.8993 18.9124C71.3949 16.231 74.1621 14.5728 77.4126 15.5377C75.0949 12.5466 72.6624 8.95248 69.3681 7.09363ZM80.054 95.5288C84.536 93.3007 92.9103 89.5316 95.7202 95.5371C96.7571 97.7507 97.9736 101.493 98.5107 103.778C99.2694 107.002 97.6882 113.778 94.3745 114.859C91.4477 115.815 88.0326 115.757 84.5072 115.048C84.0921 114.703 83.6299 114.101 83.3068 113.474C80.7895 113.376 78.4324 113.609 76.4439 114.644C76.6323 116.505 75.3731 116.804 74.1926 117.188C73.3175 120.657 75.9434 125.189 75.3149 128.353C74.8666 130.607 72.0932 130.956 70.0548 131.377C69.9883 132.63 70.1441 133.676 70.2832 134.735C69.8171 136.453 67.7265 137.43 65.7458 137.67C59.2287 138.454 49.3335 138.806 43.065 136.551C41.3157 132.261 39.9377 127.042 38.4807 122.143C32.367 122.796 27.4223 119.505 22.7609 117.349C21.1469 116.601 18.9142 116.188 18.3113 114.904C17.7268 113.66 17.966 111.276 17.8209 109.025C17.4518 103.273 17.1358 97.7262 15.617 91.8376C14.9351 89.1952 13.7465 86.8635 12.9174 84.3174C12.151 81.9576 10.812 79.0413 10.4628 76.6881C9.94498 73.2003 13.2291 73.0064 15.3291 71.495C18.5754 69.1579 21.1235 67.8654 24.6393 65.7561C25.6806 65.1315 28.8209 63.5503 29.1781 62.822C29.8882 61.3783 27.9593 59.3427 27.4436 58.2109C26.6278 56.4214 26.2024 54.9011 26.0855 53.1354C23.1362 52.6693 20.9005 50.9141 19.55 48.935C17.3161 45.6595 15.7668 39.5997 17.6997 34.9903C17.8512 34.6272 18.6072 33.9134 18.7187 33.3559C18.9387 32.258 18.3048 30.7981 18.2654 29.6304C18.0623 23.6393 19.279 18.4773 23.3122 16.6705C24.9496 10.1479 30.8098 7.97928 36.331 4.73766C38.3948 3.52612 40.6699 2.75188 43.0195 1.8873C51.4482 -1.21468 64.3802 -0.630524 71.3755 4.66006C74.3417 6.90353 79.0831 11.6404 80.779 15.07C85.2582 24.1242 84.94 39.2561 81.807 50.2701C81.3858 51.7487 80.7751 53.9224 79.9221 55.6987C79.3275 56.939 77.4791 59.4208 77.7036 60.5159C77.9347 61.6482 81.9179 64.6726 82.7719 65.4961C84.3099 66.9798 87.2317 68.9489 87.4684 70.8211C87.7228 72.8135 86.5905 75.5392 86.0169 77.4617C84.0993 83.8779 82.2282 89.8087 80.054 95.5288Z" fill="#231F20"/>
<path fill-rule="evenodd" clip-rule="evenodd" d="M50.1519 51.1145C50.395 50.7909 51.7318 50.2993 53.6023 51.1999C53.6023 51.1999 51.3855 51.5695 51.5699 55.2656L50.6461 55.0805C50.6461 55.0805 49.6914 51.7291 50.1519 51.1145Z" fill="#F7E4CD"/>
<path fill-rule="evenodd" clip-rule="evenodd" d="M66.3497 82.8827C66.3497 83.4436 65.8947 83.8984 65.3333 83.8984C64.7724 83.8984 64.3174 83.4436 64.3174 82.8827C64.3174 82.3218 64.7724 81.8662 65.3333 81.8662C65.8947 81.8662 66.3497 82.3218 66.3497 82.8827Z" fill="#1D1919"/>
<path fill-rule="evenodd" clip-rule="evenodd" d="M67.3653 87.5936C67.3653 88.1545 66.9103 88.6094 66.3489 88.6094C65.788 88.6094 65.333 88.1545 65.333 87.5936C65.333 87.0327 65.788 86.5772 66.3489 86.5772C66.9103 86.5772 67.3653 87.0327 67.3653 87.5936Z" fill="#1D1919"/>
</svg>
