<svg width="298" height="418" viewBox="0 0 298 418" fill="none" xmlns="http://www.w3.org/2000/svg">
<path fill-rule="evenodd" clip-rule="evenodd" d="M258.302 150.275C258.302 212.061 209.333 262.149 148.927 262.149C88.5215 262.149 39.5527 212.061 39.5527 150.275C39.5527 88.4879 88.5215 38.3992 148.927 38.3992C209.333 38.3992 258.302 88.4879 258.302 150.275Z" fill="#EFC600"/>
<path d="M44.0098 177.982C44.0098 177.982 36.0918 61.3162 143.592 57.9824L136.093 45.4824L77.7598 65.0662L61.0928 84.2324L46.5098 112.15L38.1758 144.65L40.6758 166.316" fill="#F3DB65"/>
<path d="M74.0147 73.9568C54.8247 93.5918 42.9497 120.702 42.9497 150.693C42.9497 180.678 54.8247 207.792 74.0147 227.423C93.2139 247.054 119.673 259.168 148.925 259.168C178.178 259.168 204.639 247.054 223.837 227.423C243.026 207.792 254.903 180.678 254.903 150.693C254.903 120.702 243.026 93.5918 223.837 73.9568C204.639 54.3293 178.178 42.2155 148.925 42.213C119.673 42.2155 93.2139 54.3293 74.0147 73.9568ZM69.1572 232.172C48.7627 211.315 36.1543 182.489 36.1543 150.693C36.1543 118.892 48.7627 90.0693 69.1572 69.2105C89.5469 48.348 117.772 35.4168 148.925 35.4205C180.079 35.4168 208.307 48.348 228.693 69.2105C249.089 90.0693 261.699 118.894 261.697 150.693C261.699 182.489 249.089 211.315 228.693 232.172C208.307 253.033 180.079 265.963 148.925 265.963C117.772 265.963 89.5469 253.033 69.1572 232.172Z" fill="#231F20"/>
<path fill-rule="evenodd" clip-rule="evenodd" d="M194.968 150.895L178.3 153.395L155.8 155.895L141.216 156.312L127.05 155.895L116.216 152.562L106.632 142.145L99.1323 120.895L97.4658 116.312L87.4658 112.979L81.6323 103.395L77.4658 89.6453L82.0498 77.5615L92.8823 73.8115L101.632 77.979L105.8 87.1453L110.8 86.3115L112.466 84.229L110.8 74.6453L110.382 62.5615L112.882 45.8953L112.785 36.3753L120.382 24.229L133.716 14.6453L157.05 4.64526L182.883 8.39526L205.383 24.6453L215.8 41.3115L222.466 53.3953L224.133 83.3953L219.133 109.229L209.966 132.145L201.216 144.229" fill="#F0D6B7"/>
<path fill-rule="evenodd" clip-rule="evenodd" d="M180.801 222.978L121.217 225.478V235.478L126.217 270.478L123.717 273.396L82.0508 259.228L79.1333 254.228L74.9668 207.146L65.3848 178.812L63.3008 172.146L96.6333 149.229L107.051 145.062L116.217 156.312L124.133 163.396L133.301 166.312L137.467 167.562L142.467 189.228L146.217 193.812L155.801 190.478L149.133 203.396L185.384 220.478L180.801 222.978Z" fill="#224A95"/>
<path fill-rule="evenodd" clip-rule="evenodd" d="M82.0503 77.5618L92.8828 73.8118L101.633 77.9793L105.8 87.1455L110.8 86.3118L112.05 81.3118L109.55 71.7293L112.05 48.8118L109.966 36.3118L117.466 27.5618L133.716 14.6455L129.133 8.39551L106.216 19.6455L96.6328 27.1455L91.2163 38.8118L82.8828 50.0618L80.3828 63.3955L82.0503 77.5618Z" fill="#3E4346"/>
<path fill-rule="evenodd" clip-rule="evenodd" d="M99.1333 38.3948C99.1333 38.3948 105.383 22.9785 130.383 15.4785C155.383 7.97852 131.633 10.061 131.633 10.061L104.551 20.4785L94.1333 30.8948L89.5508 39.2285L99.1333 38.3948Z" fill="#DCD9D8"/>
<path fill-rule="evenodd" clip-rule="evenodd" d="M86.6328 74.6453C86.6328 74.6453 77.8828 45.4778 111.216 41.3115L109.966 36.3115L87.0503 41.729L80.3828 63.3953L82.0503 77.5615L86.6328 74.6453Z" fill="#DCD9D8"/>
<path fill-rule="evenodd" clip-rule="evenodd" d="M99.9658 113.395L105.421 108.109C105.421 108.109 107.884 108.395 108.3 111.312C108.716 114.229 109.966 140.479 127.882 154.647C129.517 155.939 114.55 152.562 114.55 152.562L101.216 131.729" fill="#F7E4CD"/>
<path fill-rule="evenodd" clip-rule="evenodd" d="M176.636 105.479C176.636 105.479 177.607 92.8485 181.008 93.8198C184.41 94.791 184.41 98.1923 184.41 98.1923C184.41 98.1923 176.15 103.536 176.636 105.479Z" fill="#F7E4CD"/>
<path d="M211.217 59.2295C211.217 59.2295 204.349 60.6795 203.717 66.7295C203.084 72.7807 211.217 67.9795 212.467 67.5632" fill="#F7E4CD"/>
<path d="M160.8 59.6461C160.8 59.6461 151.633 60.8961 151.633 66.7286C151.633 72.5624 162.051 72.1461 164.967 69.6461" fill="#F7E4CD"/>
<path fill-rule="evenodd" clip-rule="evenodd" d="M104.133 86.7285C104.133 86.7285 88.2993 77.1448 86.6333 86.3123C84.9668 95.4785 81.2158 102.146 89.1333 111.729L83.7168 110.062L78.7168 97.146L77.0508 84.646L86.6333 74.6448L97.4668 75.4785L103.717 80.4785L104.133 86.7285Z" fill="#F7E4CD"/>
<path fill-rule="evenodd" clip-rule="evenodd" d="M111.632 60.4785C111.632 60.4785 118.716 23.8123 154.55 16.7285C184.051 10.8973 199.549 17.9785 205.383 24.6448C205.383 24.6448 179.133 -6.60398 154.132 2.97852C129.132 12.5623 110.8 30.0623 111.216 41.311C111.925 60.471 111.632 60.4785 111.632 60.4785Z" fill="#F7E4CD"/>
<path fill-rule="evenodd" clip-rule="evenodd" d="M208.301 28.8115C208.301 28.8115 196.218 28.3953 195.801 39.229C195.801 39.229 195.8 40.8953 196.633 42.5615C196.633 42.5615 206.218 31.7278 212.051 37.5615" fill="#F7E4CD"/>
<path fill-rule="evenodd" clip-rule="evenodd" d="M155.391 43.6902C155.391 43.6902 153.31 27.0614 139.133 36.7289C129.967 42.9789 130.801 51.7289 132.467 53.3952C134.133 55.0627 133.68 58.419 134.949 56.1152C136.217 53.8115 135.799 46.3114 140.383 44.2289C144.967 42.1452 152.48 39.8177 155.391 43.6902Z" fill="#F7E4CD"/>
<path fill-rule="evenodd" clip-rule="evenodd" d="M116.217 156.312L77.0508 173.812C77.0508 173.812 93.3008 238.396 84.9668 258.396L79.1333 256.313L78.7168 231.729L67.8848 185.063L63.3008 172.146L104.133 144.647L116.217 156.312Z" fill="#3E6BBF"/>
<path fill-rule="evenodd" clip-rule="evenodd" d="M120.244 192.033L125.801 198.812V223.812H119.133C119.133 223.812 118.301 206.313 118.301 204.229C118.301 202.145 119.133 194.645 119.133 194.645" fill="#3E6BBF"/>
<path fill-rule="evenodd" clip-rule="evenodd" d="M120.383 227.563L101.633 228.395L107.05 232.145L120.383 234.229" fill="#3E6BBF"/>
<path fill-rule="evenodd" clip-rule="evenodd" d="M184.551 223.396L199.967 222.979L203.717 261.313L187.883 263.396L184.551 223.396Z" fill="#224A95"/>
<path fill-rule="evenodd" clip-rule="evenodd" d="M188.717 223.396L212.051 222.146C212.051 222.146 221.633 197.979 221.633 196.729C221.633 195.479 229.967 161.729 229.967 161.729L211.217 142.147L207.467 138.813L197.467 148.813V187.563L188.717 223.396Z" fill="#224A95"/>
<path fill-rule="evenodd" clip-rule="evenodd" d="M199.133 220.479L184.551 223.396L186.633 235.063C192.05 237.563 201.217 230.896 201.217 230.896" fill="#3E6BBF"/>
<path fill-rule="evenodd" clip-rule="evenodd" d="M199.551 147.562L228.717 169.229L229.551 159.229L207.467 138.812L199.551 147.562Z" fill="#3E6BBF"/>
<path fill-rule="evenodd" clip-rule="evenodd" d="M134.842 305.483L126.216 270.478L121.925 244.649L121.216 225.478L160.259 223.399L184.55 223.395L182.341 267.149L186.091 300.899L185.675 307.149L154.009 309.649L134.842 305.483Z" fill="white"/>
<path fill-rule="evenodd" clip-rule="evenodd" d="M179.133 222.979C179.133 222.979 177.05 266.313 183.3 297.145C183.3 297.145 170.8 305.063 152.466 307.146L187.466 305.896L191.633 303.396L186.633 235.063L185.383 220.478" fill="#DCD9D8"/>
<path fill-rule="evenodd" clip-rule="evenodd" d="M204.427 257.982L220.677 253.399L251.509 251.732L256.093 237.566L247.759 212.982L238.177 211.732L224.843 215.899L212.051 222.145L205.259 220.899L199.967 222.978" fill="white"/>
<path fill-rule="evenodd" clip-rule="evenodd" d="M204.133 249.646C204.133 249.646 214.965 244.647 216.633 245.063L212.05 222.146L217.467 220.063C217.467 220.063 221.217 241.729 221.217 244.229C221.217 244.229 244.549 245.479 246.633 245.479C246.633 245.479 251.633 235.896 250.383 225.896L254.967 239.229L255.383 246.729L248.717 256.729L241.217 258.396L228.717 257.979L224.55 252.563L209.967 254.646L205.383 256.313" fill="#DCD9D8"/>
<path d="M187.76 220.066L178.594 196.733L169.01 182.983C169.01 182.983 171.092 177.149 174.01 177.149C176.927 177.149 183.594 177.149 183.594 177.149L192.76 180.483L191.927 195.899L187.76 220.066Z" fill="white"/>
<path fill-rule="evenodd" clip-rule="evenodd" d="M189.551 212.145C189.551 212.145 177.883 189.646 177.883 186.312C177.883 186.312 179.966 181.312 182.883 182.562C185.801 183.812 192.051 187.145 192.051 187.145V179.229L177.883 176.311L168.301 177.561L184.551 215.895L187.883 216.312" fill="#DCD9D8"/>
<path d="M138.593 157.151L127.05 155.896L116.216 152.562V156.312L121.509 162.149L138.176 169.649" fill="white"/>
<path fill-rule="evenodd" clip-rule="evenodd" d="M119.968 158.399C119.968 158.399 132.885 163.817 137.052 162.567L137.466 167.562L125.802 165.067L118.718 160.067L119.968 158.399Z" fill="#DCD9D8"/>
<path fill-rule="evenodd" clip-rule="evenodd" d="M204.381 178.567C197.311 178.36 190.924 177.52 185.331 175.942C185.711 173.65 185 171.4 185.571 169.749C187.13 168.626 189.743 168.644 192.099 168.38C190.061 167.379 187.199 166.982 184.848 167.561C184.793 165.97 184.079 164.984 183.646 163.739C187.621 162.32 197.005 153.019 202.284 156.099C204.799 157.564 205.868 165.931 206.063 170C206.225 173.375 205.756 176.78 204.381 178.567Z" fill="#EFC600"/>
<path d="M204.381 178.567C197.311 178.36 190.924 177.52 185.331 175.942C185.711 173.65 185 171.4 185.571 169.749C187.13 168.626 189.743 168.644 192.099 168.38C190.061 167.379 187.199 166.982 184.848 167.561C184.793 165.97 184.079 164.984 183.646 163.739C187.621 162.32 197.005 153.019 202.284 156.099C204.799 157.564 205.868 165.931 206.063 170C206.225 173.375 205.756 176.78 204.381 178.567Z" stroke="#EFC600" stroke-width="2.5"/>
<path fill-rule="evenodd" clip-rule="evenodd" d="M170.573 167.01C170.554 167.545 170.531 168.084 170.51 168.624C168.303 170.074 164.739 170.057 162.316 171.275C165.888 171.432 168.699 172.292 171.131 173.504C171.078 174.852 171.026 176.198 170.974 177.545C166.928 180.315 163.231 184.44 158.467 187.038C156.215 188.267 148.31 191.428 145.913 190.869C144.557 190.554 144.435 188.872 143.893 187.286C142.738 183.889 140.08 178.483 139.848 173.37C139.552 166.913 138.901 156.09 145.86 157.42C151.474 158.492 158.004 161.078 162.35 163.453C165.006 164.905 166.543 166.7 170.573 167.01Z" fill="#EFC600"/>
<path d="M170.573 167.01C170.554 167.545 170.531 168.084 170.51 168.624C168.303 170.074 164.739 170.057 162.316 171.275C165.888 171.432 168.699 172.292 171.131 173.504C171.078 174.852 171.026 176.198 170.974 177.545C166.928 180.315 163.231 184.44 158.467 187.038C156.215 188.267 148.31 191.428 145.913 190.869C144.557 190.554 144.435 188.872 143.893 187.286C142.738 183.889 140.08 178.483 139.848 173.37C139.552 166.913 138.901 156.09 145.86 157.42C151.474 158.492 158.004 161.078 162.35 163.453C165.006 164.905 166.543 166.7 170.573 167.01V167.01Z" stroke="#EFC600" stroke-width="2.5"/>
<path fill-rule="evenodd" clip-rule="evenodd" d="M174.592 174.715C173.974 171.198 173.261 170.194 173.537 167.125C182.918 160.87 184.679 177.869 174.592 174.715Z" fill="#EFC600"/>
<path d="M174.592 174.715C173.974 171.198 173.261 170.194 173.537 167.125C182.918 160.87 184.679 177.869 174.592 174.715Z" stroke="#EFC600" stroke-width="2.5"/>
<path fill-rule="evenodd" clip-rule="evenodd" d="M188.176 177.566C188.176 177.566 185.258 173.399 187.342 172.149C189.426 170.899 191.509 172.15 192.759 170.066C194.009 167.983 192.759 166.733 193.176 164.233C193.592 161.733 195.677 161.315 197.759 160.899C199.842 160.483 205.677 159.649 206.509 161.733L204.009 154.233L199.009 152.566L183.176 161.733L182.342 166.316V175.483" fill="#F3DB65"/>
<path fill-rule="evenodd" clip-rule="evenodd" d="M144.426 191.316C143.926 184.814 143.396 178.32 142.806 171.824C141.925 162.124 145.136 163.816 153.545 163.816C154.829 163.816 161.452 165.348 161.926 166.316C164.198 170.958 158.126 169.926 164.543 173.426C169.961 176.38 179.531 171.633 177.342 165.066C176.117 163.606 170.959 164.611 169.111 163.653C165.856 161.965 162.601 160.278 159.345 158.59C155.204 156.441 145.632 153.309 141.217 156.311C130.029 163.92 141.923 182.931 145.914 190.869" fill="#F3DB65"/>
<path fill-rule="evenodd" clip-rule="evenodd" d="M155.39 43.6902C144.034 41.0452 138.391 48.4427 134.948 56.1152C131.875 55.3702 133.098 51.1902 133.874 49.0602C135.907 43.4702 144.099 36.029 150.792 37.0377C153.672 37.4715 157.57 40.1052 155.39 43.6902Z" fill="#231F20"/>
<path fill-rule="evenodd" clip-rule="evenodd" d="M210.723 56.6225C210.902 56.63 211.083 56.6362 211.262 56.6437C213.828 61.975 216.05 67.6225 219.287 72.3287C217.118 77.38 202.865 81.85 203.085 72.78C206.167 71.4325 211.488 72.505 214.221 70.7837C212.641 66.4475 210.361 62.7562 210.723 56.6225Z" fill="#231F20"/>
<path fill-rule="evenodd" clip-rule="evenodd" d="M161.205 56.7611C163.64 61.2249 164.432 65.9149 167.893 69.2887C169.452 70.8074 172.483 72.6586 170.981 76.8824C170.63 77.8786 168.063 80.0999 166.582 80.5362C161.171 82.1337 148.562 80.8661 152.832 74.1199C157.307 74.3286 163.322 77.0261 166.667 73.7774C164.098 69.6711 159.519 61.5474 161.205 56.7611Z" fill="#231F20"/>
<path fill-rule="evenodd" clip-rule="evenodd" d="M208.692 102.129C200.544 107.362 191.459 113.054 178.109 111.734C175.257 109.254 174.169 103.735 176.94 100.09C178.383 102.57 177.477 107.131 181.497 107.817C189.072 109.114 197.888 103.184 203.337 101.111C206.715 95.4149 203.045 93.3199 200.002 89.6536C193.77 82.1424 185.412 72.8324 185.715 61.5874C188.234 59.7611 188.452 64.3749 188.813 65.2149C192.067 72.8299 200.255 82.5686 206.232 89.0861C207.699 90.6911 210.115 92.2311 210.384 93.2924C211.159 96.3786 208.368 100.076 208.692 102.129Z" fill="#231F20"/>
<path fill-rule="evenodd" clip-rule="evenodd" d="M101.281 96.6189C98.7276 95.1614 98.1197 88.7414 95.1216 88.5589C90.837 88.2989 91.6182 96.8877 91.6353 101.91C88.6861 99.2327 88.1675 90.9889 90.3341 86.7551C87.8648 85.5426 86.7622 88.0926 85.3926 88.9914C87.1528 76.2039 104.099 83.0602 101.281 96.6189Z" fill="#231F20"/>
<path fill-rule="evenodd" clip-rule="evenodd" d="M213.88 107.454C210.087 114.672 204.722 122.622 193.593 122.854C193.367 120.522 193.193 116.975 193.606 115.571C202.113 114.754 207.366 110.424 213.88 107.454Z" fill="#231F20"/>
<path fill-rule="evenodd" clip-rule="evenodd" d="M160.562 112.134C167.661 115.866 180.705 116.268 190.353 115.985C190.87 118.099 190.858 120.71 190.878 123.288C178.477 123.906 163.814 120.838 160.562 112.134Z" fill="#231F20"/>
<path fill-rule="evenodd" clip-rule="evenodd" d="M159.213 119.094C164.122 131.418 180.992 129.999 195.218 129.659C194.592 131.259 193.234 133.149 191.547 133.833C186.988 135.688 174.414 137.096 168.085 133.734C164.072 131.601 161.493 126.779 159.294 123.953C158.232 122.588 152.944 119.102 159.213 119.094Z" fill="#231F20"/>
<path fill-rule="evenodd" clip-rule="evenodd" d="M208.099 187.072C202.339 196.937 196.828 207.07 189.994 215.771C192.859 207.348 194.085 193.248 194.518 182.5C200.512 179.695 205.644 183.131 208.099 187.072Z" fill="#6C8FD1"/>
<path fill-rule="evenodd" clip-rule="evenodd" d="M239.094 222.529C232.646 223.82 228.114 230.088 221.823 229.686C225.281 224.811 231.339 222.757 239.094 222.529Z" fill="#231F20"/>
<path fill-rule="evenodd" clip-rule="evenodd" d="M241.939 232.621C236.683 233.176 230.509 234.027 225.178 233.589C227.701 229.734 237.425 231.064 241.939 232.621Z" fill="#231F20"/>
<path fill-rule="evenodd" clip-rule="evenodd" d="M243.761 241.323C237.853 241.451 230.511 241.333 224.896 240.862C228.217 237.295 239.929 239.538 243.761 241.323Z" fill="#231F20"/>
<path fill-rule="evenodd" clip-rule="evenodd" d="M196.984 265.134C197.831 272.553 200.773 280.07 200.404 288.195C197.138 289.296 195.261 290.26 190.885 290.254C190.576 283.349 189.653 272.793 189.929 266.21C192.081 266.353 195.255 264.672 196.984 265.134Z" fill="#DCD9D8"/>
<path fill-rule="evenodd" clip-rule="evenodd" d="M187.46 155.794C184.494 157.73 181.968 160.148 179.119 162.215C172.802 162.528 169.354 161.778 164.713 158.15C164.789 157.859 165.255 157.989 165.273 157.632C172.035 160.645 180.632 156.404 187.46 155.794Z" fill="#F0D6B7"/>
<path fill-rule="evenodd" clip-rule="evenodd" d="M151.96 201.891C153.818 193.84 161.098 189.67 167.709 185.236C174.533 193.897 178.683 205.034 183.253 215.781C172.456 212.526 161.423 207.245 151.96 201.891Z" fill="#6C8FD1"/>
<path fill-rule="evenodd" clip-rule="evenodd" d="M189.929 266.21C189.653 272.793 190.576 283.349 190.885 290.254C195.261 290.26 197.138 289.297 200.404 288.195C200.773 280.07 197.831 272.553 196.984 265.134C195.255 264.673 192.081 266.353 189.929 266.21ZM121.786 228.774C124.672 255.303 128.852 277.604 136.518 301.095C153.532 306.262 174.043 306.712 189.081 302.05C186.32 288.791 187.526 272.649 185.913 258.5C184.696 247.866 185.316 237.165 183.649 226.315C165.426 222.524 139.67 225.429 121.786 228.774ZM187.958 226.482C187.804 237.875 188.468 249.114 189.338 260.522C193.713 259.865 196.681 259.427 200.746 258.535C199.426 247.553 199.589 235.195 196.9 225.48C193.793 225.51 191.056 225.444 187.958 226.482ZM210.151 224.645C208.075 224.169 205.658 224.627 203.674 224.665C204.606 233.953 206.869 244.202 207.665 253.951C210.786 254.048 212.454 252.576 215.021 252.08C215.159 243.523 214.274 231.733 210.151 224.645ZM243.756 255.349C250.263 253.769 254.354 245.8 252.534 237.617C251.313 232.117 249.138 221.76 246.81 218.242C245.09 215.639 240.426 212.232 236.703 214.617C230.645 218.495 219.974 219.621 215.556 224.317C217.771 231.692 218.459 241.822 219.373 251.166C226.94 251.638 236.251 249.084 242.545 251.794C238.151 253.218 232.45 253.229 228.654 255.303C231.756 256.802 239.02 256.499 243.756 255.349ZM183.253 215.782C178.683 205.034 174.533 193.897 167.709 185.237C161.098 189.67 153.818 193.84 151.96 201.891C161.423 207.245 172.455 212.527 183.253 215.782ZM194.518 182.5C194.085 193.249 192.859 207.348 189.994 215.772C196.828 207.07 202.339 196.938 208.099 187.073C205.644 183.132 200.511 179.695 194.518 182.5ZM181.748 177.963C179.159 177.684 176.961 180.939 173.595 179.532C172.824 180.384 172.123 181.308 171.336 182.14C178.771 191.1 182.15 203.813 187.893 214.343C190.974 204.228 190.619 193.146 191.298 182.107C187.064 182.375 184.715 178.278 181.748 177.963ZM173.536 167.125C173.26 170.194 173.974 171.198 174.591 174.715C184.679 177.869 182.918 160.87 173.536 167.125ZM162.35 163.453C158.004 161.078 151.474 158.492 145.86 157.42C138.901 156.089 139.552 166.913 139.848 173.37C140.08 178.483 142.738 183.889 143.893 187.285C144.435 188.871 144.557 190.554 145.913 190.869C148.31 191.428 156.215 188.266 158.467 187.038C163.231 184.44 166.928 180.315 170.974 177.545C171.026 176.198 171.078 174.852 171.131 173.504C168.699 172.292 165.888 171.432 162.316 171.275C164.739 170.057 168.303 170.074 170.51 168.624C170.531 168.084 170.554 167.545 170.573 167.01C166.543 166.7 165.006 164.905 162.35 163.453ZM120.833 155.912C117.226 159.574 130.951 164.567 135.321 164.835C135.297 162.518 136.642 160.333 136.371 158.67C131.181 157.759 124.36 158.36 120.833 155.912ZM165.273 157.632C165.255 157.989 164.789 157.859 164.713 158.15C169.354 161.778 172.801 162.528 179.119 162.215C181.968 160.148 184.494 157.73 187.46 155.794C180.631 156.404 172.035 160.645 165.273 157.632ZM206.063 170C205.868 165.932 204.799 157.564 202.284 156.099C197.005 153.018 187.621 162.32 183.646 163.739C184.079 164.984 184.793 165.97 184.848 167.562C187.199 166.983 190.061 167.379 192.099 168.38C189.743 168.644 187.13 168.627 185.571 169.749C185 171.4 185.711 173.65 185.331 175.943C190.924 177.52 197.311 178.36 204.381 178.568C205.756 176.78 206.225 173.375 206.063 170ZM114.76 159.454C113.627 158.647 105.964 148.675 104.914 149.089C91.0465 154.558 78.0802 164.014 66.4933 172.958C77.5407 196.663 82.0002 225.705 82.7882 253.698C95.4434 259.617 106.559 268.149 123.732 269.04C121.745 254.98 119.931 242.436 118.803 229.199C114.488 227.38 108.297 229.282 104.259 228.635C104.225 223.769 110.426 226.504 110.943 223.232C111.332 220.757 107.531 220.569 108.769 216.672C111.925 217.819 113.583 220.354 116.95 221.306C120.026 214.576 116.907 202.668 117.35 197.043C117.434 195.987 117.878 191.192 120.243 192.033C122.337 192.778 120.124 204.785 120.353 210.109C120.562 215.014 119.761 219.76 121.747 222.839C138.341 220.58 155.204 219.12 173.159 218.628C169.209 216.933 164.516 215.329 159.372 212.429C156.583 210.857 147.791 207.585 146.986 204.936C145.702 200.715 150.356 198.467 151.151 194.848C142.775 199.416 141.141 190.469 139.159 184.13C137.364 178.389 136.342 174.1 135.901 170.789C128.686 167.349 120.971 163.865 114.76 159.454ZM198.734 150.295C210.288 144.693 212.37 171.234 207.841 179.784C208.541 182.334 210.949 183.31 211.931 185.603C205.484 197.153 198.323 207.934 191.744 219.348C196.638 216.302 203.628 218.803 209.386 216.523C211.491 215.69 213.015 210.871 214.609 207.016C218.993 196.41 223.595 183.039 225.643 172.918C226.105 170.612 227.365 165.587 227.083 163.534C226.579 159.859 221.593 157.134 219.056 154.862C214.384 150.664 211.441 146.97 206.568 143.045C204.591 145.963 200.35 147.923 198.734 150.295ZM88.3365 47.8353C82.8312 53.8928 83.9835 65.2428 84.65 73.3177C94.6012 67.0578 107.809 73.8128 107.685 84.4603C112.436 84.334 109.46 78.5265 108.6 74.7852C105.792 62.5652 113.332 49.289 108.942 38.114C100.419 38.7603 93.417 42.2415 88.3365 47.8353ZM127.729 12.6778C115.265 16.2103 99.292 25.2665 94.1705 36.4628C98.1363 35.8865 100.889 33.8865 104.801 33.639C106.28 33.5428 108.217 34.259 109.916 33.8365C113.302 32.9965 116.16 25.404 118.715 22.579C121.205 19.8203 124.198 18.6415 126.247 16.1265C127.563 15.4915 129.508 15.5353 129.583 13.559C129.013 12.949 128.412 12.484 127.729 12.6778ZM192.608 16.0002C179.671 8.70151 157.775 3.21152 144.014 10.0715C132.911 15.6078 117.902 24.7678 112.785 36.3752C117.565 47.5765 111.369 57.8403 110.973 69.2128C110.763 75.264 113.822 80.5465 114.057 87.134C112.421 89.8328 107.423 90.1653 103.964 89.9803C102.799 84.1528 100.761 77.6028 94.7599 76.9453C86.2687 76.0165 80.0602 83.044 79.6744 90.3878C79.2179 99.024 86.3077 113.338 96.3565 112.344C100.238 111.96 101.192 108.069 105.422 108.109C107.714 112.683 101.885 114.119 101.286 117.39C101.13 118.235 101.769 121.538 102.141 123.087C103.966 130.628 108.035 140.388 112.04 146.129C117.123 153.412 127.11 154.509 137.853 155.223C139.772 151.089 146.841 151.429 151.447 152.51C145.927 150.324 140.795 145.024 136.542 140.333C131.657 134.95 126.708 129.177 126.458 122.142C135.69 134.949 143.317 146.134 160.104 151.768C172.806 156.028 187.641 149.815 197.401 142.962C201.451 140.113 203.869 135.593 206.748 131.455C217.519 115.962 222.545 93.8465 221.44 72.4115C220.985 63.5715 221.005 54.7615 218.039 48.814C214.939 42.5953 204.454 37.0315 198.316 42.6565C197.179 36.609 203.42 32.869 210.751 35.0453C205.524 28.299 200.038 20.1927 192.608 16.0002ZM216.709 215.459C226.818 210.434 245.705 201.933 252.043 215.478C254.381 220.471 257.125 228.91 258.336 234.064C260.048 241.335 256.481 256.618 249.008 259.058C242.406 261.213 234.704 261.081 226.753 259.484C225.816 258.705 224.774 257.348 224.045 255.933C218.368 255.713 213.051 256.238 208.566 258.572C208.991 262.77 206.151 263.444 203.489 264.309C201.515 272.135 207.438 282.355 206.02 289.492C205.009 294.576 198.754 295.362 194.156 296.313C194.006 299.138 194.358 301.496 194.671 303.887C193.62 307.76 188.905 309.965 184.438 310.505C169.739 312.273 147.421 313.067 133.283 307.983C129.338 298.306 126.23 286.535 122.943 275.485C109.154 276.958 98.002 269.535 87.4884 264.673C83.8483 262.985 78.8127 262.056 77.4528 259.158C76.1344 256.353 76.6739 250.976 76.3468 245.898C75.5143 232.927 74.8014 220.415 71.376 207.134C69.838 201.174 67.1573 195.915 65.2872 190.173C63.5587 184.85 60.5387 178.273 59.751 172.965C58.5832 165.099 65.9903 164.661 70.7267 161.253C78.0484 155.982 83.7955 153.066 91.7252 148.309C94.0738 146.9 101.156 143.334 101.962 141.692C103.564 138.435 99.213 133.844 98.0499 131.292C96.21 127.255 95.2505 123.827 94.9869 119.844C88.335 118.793 83.2925 114.834 80.2467 110.37C75.2082 102.983 71.7139 89.3153 76.0733 78.919C76.4152 78.1003 78.1202 76.4902 78.3717 75.2328C78.8678 72.7565 77.438 69.464 77.3492 66.8303C76.8912 53.3177 79.6354 41.6753 88.732 37.6003C92.4249 22.889 105.642 17.9978 118.095 10.6865C122.75 7.95401 127.881 6.20776 133.18 4.25775C152.191 -2.73849 181.358 -1.42099 197.135 10.5115C203.825 15.5715 214.519 26.2552 218.344 33.9902C228.446 54.4115 227.729 88.5403 220.663 113.382C219.713 116.717 218.335 121.619 216.411 125.625C215.07 128.423 210.901 134.02 211.408 136.49C211.929 139.044 220.913 145.865 222.839 147.723C226.308 151.069 232.898 155.51 233.431 159.733C234.005 164.227 231.451 170.374 230.158 174.71C225.833 189.181 221.613 202.558 216.709 215.459Z" fill="#231F20"/>
<path fill-rule="evenodd" clip-rule="evenodd" d="M149.268 115.287C149.817 114.557 152.832 113.448 157.051 115.479C157.051 115.479 152.051 116.313 152.467 124.649L150.383 124.232C150.383 124.232 148.23 116.673 149.268 115.287Z" fill="#F7E4CD"/>
<path fill-rule="evenodd" clip-rule="evenodd" d="M185.801 186.938C185.801 188.203 184.774 189.229 183.508 189.229C182.243 189.229 181.217 188.203 181.217 186.938C181.217 185.673 182.243 184.645 183.508 184.645C184.774 184.645 185.801 185.673 185.801 186.938Z" fill="#1D1919"/>
<path fill-rule="evenodd" clip-rule="evenodd" d="M188.092 197.563C188.092 198.828 187.065 199.854 185.799 199.854C184.534 199.854 183.508 198.828 183.508 197.563C183.508 196.297 184.534 195.27 185.799 195.27C187.065 195.27 188.092 196.297 188.092 197.563Z" fill="#1D1919"/>
<path fill-rule="evenodd" clip-rule="evenodd" d="M12.4948 324.314C12.4948 330.987 14.0861 335.541 16.2569 339.995C16.4455 340.382 16.3738 340.843 16.0691 341.147C11.6904 345.515 1.99987 355.478 2 376.208C2.00014 397.539 16.5762 415.855 39.8983 415.855C61.4716 415.855 81.8786 391.896 81.8786 366.877C81.8786 351.132 73.4733 342.91 71.3055 341.052C71.0035 340.793 70.8566 340.392 70.9262 340.001C71.162 338.675 71.5798 335.592 70.8004 333.643C69.6344 330.727 64.9699 324.314 51.5596 324.314C38.8194 324.314 29.6301 329.64 26.2082 331.979C25.5562 332.425 24.6156 332.033 24.5344 331.248C24.3255 329.228 24.0463 325.953 24.1559 323.731C24.3455 319.887 25.8878 315.257 26.6492 313.177C26.862 312.596 26.5194 311.948 25.9025 311.894C20.552 311.43 12.4948 315.103 12.4948 324.314ZM29.4627 339.02C37.453 347.682 50.5504 353.49 65.3165 347.109C65.9814 346.822 66.0952 345.941 65.5339 345.483C60.4493 341.337 56.8701 339.491 51.3535 336.947C50.7226 336.656 50.8522 335.731 51.5412 335.642C55.6908 335.109 58.8423 335.1 63.2491 335.935C64.1885 336.113 64.774 335.102 64.0568 334.47C61.6238 332.325 57.2005 329.26 51.5599 328.978C41.2064 328.459 32.1036 335.487 29.5392 337.67C29.1303 338.018 29.0986 338.626 29.4627 339.02ZM67.2704 351.508C71.8421 361.454 69.7076 411.682 41.0641 411.188C18.6901 410.802 13.242 375.195 22.521 351.141C22.7538 350.538 23.49 350.323 24.0268 350.683C27.3612 352.924 38.0687 359.631 46.3119 359.296C55.8383 358.909 63.419 353.317 65.8753 351.283C66.3354 350.902 67.0209 350.965 67.2704 351.508Z" fill="#EFC600"/>
<path d="M16.2569 339.995L17.6053 339.338L16.2569 339.995ZM16.0691 341.147L15.0097 340.085L16.0691 341.147ZM2 376.208L0.5 376.208L2 376.208ZM71.3055 341.052L70.3292 342.191L70.3292 342.191L71.3055 341.052ZM70.9262 340.001L69.4494 339.738V339.738L70.9262 340.001ZM70.8004 333.643L69.4076 334.2L70.8004 333.643ZM26.2082 331.979L27.0548 333.218L26.2082 331.979ZM24.5344 331.248L23.0423 331.402V331.402L24.5344 331.248ZM24.1559 323.731L22.6577 323.657V323.657L24.1559 323.731ZM26.6492 313.177L25.2406 312.662V312.662L26.6492 313.177ZM25.9025 311.894L26.0321 310.4H26.0321L25.9025 311.894ZM65.3165 347.109L64.7215 345.733L65.3165 347.109ZM29.4627 339.02L28.3601 340.037V340.037L29.4627 339.02ZM65.5339 345.483L66.4819 344.321L65.5339 345.483ZM51.3535 336.947L51.9816 335.585H51.9816L51.3535 336.947ZM51.5412 335.642L51.7323 337.13L51.5412 335.642ZM63.2491 335.935L63.5281 334.461L63.2491 335.935ZM64.0568 334.47L63.0649 335.595L63.0649 335.595L64.0568 334.47ZM51.5599 328.978L51.4849 330.476H51.4849L51.5599 328.978ZM29.5392 337.67L28.5669 336.528H28.5669L29.5392 337.67ZM41.0641 411.188L41.0382 412.688L41.0641 411.188ZM67.2704 351.508L68.6333 350.881L68.6333 350.881L67.2704 351.508ZM22.521 351.141L23.9205 351.681L22.521 351.141ZM24.0268 350.683L23.1901 351.928L23.1901 351.928L24.0268 350.683ZM46.3119 359.296L46.251 357.797L46.3119 359.296ZM65.8753 351.283L66.832 352.438L65.8753 351.283ZM17.6053 339.338C15.5036 335.025 13.9948 330.699 13.9948 324.314H10.9948C10.9948 331.276 12.6686 336.056 14.9086 340.652L17.6053 339.338ZM17.1285 342.209C17.899 341.44 18.067 340.285 17.6053 339.338L14.9086 340.652C14.824 340.478 14.8487 340.246 15.0097 340.085L17.1285 342.209ZM3.5 376.208C3.49987 356.054 12.8749 346.452 17.1285 342.209L15.0097 340.085C10.506 344.578 0.499863 354.902 0.5 376.208L3.5 376.208ZM39.8983 414.355C17.5415 414.355 3.50013 396.854 3.5 376.208L0.5 376.208C0.500141 398.223 15.6108 417.355 39.8983 417.355V414.355ZM80.3786 366.877C80.3786 378.991 75.4307 390.897 67.8385 399.773C60.2367 408.661 50.1266 414.355 39.8983 414.355V417.355C51.2433 417.355 62.1234 411.07 70.1183 401.723C78.1231 392.365 83.3786 379.782 83.3786 366.877H80.3786ZM70.3292 342.191C72.3049 343.884 80.3786 351.725 80.3786 366.877H83.3786C83.3786 350.538 74.6417 341.936 72.2818 339.913L70.3292 342.191ZM69.4494 339.738C69.2849 340.663 69.6322 341.593 70.3292 342.191L72.2818 339.913C72.3748 339.993 72.4282 340.121 72.403 340.263L69.4494 339.738ZM69.4076 334.2C69.6813 334.884 69.7792 335.893 69.7447 337.009C69.7113 338.09 69.5603 339.114 69.4494 339.738L72.403 340.263C72.5279 339.561 72.7037 338.381 72.7433 337.102C72.7818 335.858 72.6989 334.35 72.1931 333.086L69.4076 334.2ZM51.5596 325.814C64.3878 325.814 68.4808 331.882 69.4076 334.2L72.1931 333.086C70.788 329.572 65.5521 322.814 51.5596 322.814V325.814ZM27.0548 333.218C30.3408 330.971 39.2348 325.814 51.5596 325.814V322.814C38.4041 322.814 28.9193 328.309 25.3616 330.741L27.0548 333.218ZM23.0423 331.402C23.2517 333.427 25.5559 334.242 27.0548 333.218L25.3616 330.741C25.4995 330.647 25.6506 330.655 25.7495 330.697C25.8562 330.743 26.0041 330.877 26.0264 331.093L23.0423 331.402ZM22.6577 323.657C22.5418 326.008 22.8342 329.389 23.0423 331.402L26.0264 331.093C25.8168 329.066 25.5509 325.898 25.6541 323.805L22.6577 323.657ZM25.2406 312.662C24.4769 314.748 22.8595 319.565 22.6577 323.657L25.6541 323.805C25.8314 320.208 27.2987 315.766 28.0577 313.693L25.2406 312.662ZM25.7729 313.389C25.5479 313.369 25.3671 313.228 25.2805 313.075C25.202 312.936 25.1953 312.785 25.2406 312.662L28.0577 313.693C28.549 312.351 27.8037 310.554 26.0321 310.4L25.7729 313.389ZM13.9948 324.314C13.9948 320.205 15.7668 317.419 18.0919 315.676C20.4714 313.892 23.4547 313.188 25.7729 313.389L26.0321 310.4C22.9998 310.137 19.2792 311.037 16.2924 313.276C13.2514 315.555 10.9948 319.211 10.9948 324.314H13.9948ZM64.7215 345.733C50.6852 351.797 38.2414 346.325 30.5652 338.003L28.3601 340.037C36.6647 349.04 50.4155 355.182 65.9114 348.486L64.7215 345.733ZM64.5859 346.646C64.2957 346.409 64.3296 345.902 64.7215 345.733L65.9114 348.486C67.6332 347.743 67.8946 345.473 66.4819 344.321L64.5859 346.646ZM50.7254 338.31C56.1867 340.828 59.6393 342.612 64.5859 346.646L66.4819 344.321C61.2592 340.062 57.5534 338.154 51.9816 335.585L50.7254 338.31ZM51.3501 334.154C49.0891 334.445 48.7986 337.421 50.7254 338.31L51.9816 335.585C52.3286 335.745 52.4814 336.121 52.4375 336.43C52.3927 336.745 52.129 337.079 51.7323 337.13L51.3501 334.154ZM63.5281 334.461C58.946 333.593 55.6342 333.604 51.3501 334.154L51.7323 337.13C55.7475 336.614 58.7387 336.607 62.97 337.409L63.5281 334.461ZM63.0649 335.595C63.0117 335.548 62.9194 335.432 62.8872 335.246C62.8564 335.068 62.8942 334.899 62.9669 334.77C63.1207 334.497 63.3905 334.435 63.5281 334.461L62.97 337.409C64.0471 337.612 65.0793 337.134 65.5814 336.242C66.1071 335.307 65.9317 334.123 65.0486 333.344L63.0649 335.595ZM51.4849 330.476C56.6336 330.734 60.7412 333.547 63.0649 335.595L65.0486 333.344C62.5064 331.104 57.7674 327.787 51.6349 327.48L51.4849 330.476ZM30.5115 338.812C31.7394 337.767 34.556 335.543 38.3049 333.65C42.0622 331.752 46.6603 330.234 51.4849 330.476L51.6349 327.48C46.106 327.203 40.9759 328.94 36.9524 330.972C32.9204 333.009 29.9034 335.39 28.5669 336.528L30.5115 338.812ZM30.5652 338.003C30.7689 338.224 30.7623 338.599 30.5115 338.812L28.5669 336.528C27.4983 337.437 27.4283 339.027 28.3601 340.037L30.5652 338.003ZM41.0382 412.688C48.7063 412.82 54.6157 409.532 59.0191 404.453C63.3844 399.417 66.2726 392.629 68.0754 385.637C69.8823 378.63 70.6275 371.307 70.6323 365.099C70.6371 358.968 69.9209 353.682 68.6333 350.881L65.9075 352.134C66.9058 354.306 67.6371 359.029 67.6323 365.097C67.6276 371.089 66.9061 378.157 65.1704 384.888C63.4307 391.635 60.7003 397.933 56.7523 402.488C52.8423 406.998 47.7436 409.803 41.0899 409.688L41.0382 412.688ZM21.1216 350.602C16.3743 362.907 15.3912 378.139 18.4677 390.405C21.5315 402.62 28.8346 412.477 41.0382 412.688L41.0899 409.688C30.9195 409.513 24.3117 401.373 21.3776 389.675C18.4564 378.028 19.3887 363.429 23.9205 351.681L21.1216 350.602ZM24.8634 349.438C23.5645 348.566 21.7166 349.059 21.1216 350.602L23.9205 351.681C23.791 352.017 23.4155 352.08 23.1901 351.928L24.8634 349.438ZM46.251 357.797C42.4974 357.95 38.028 356.484 33.9602 354.595C29.9349 352.726 26.4967 350.536 24.8634 349.438L23.1901 351.928C24.8913 353.072 28.474 355.355 32.6968 357.316C36.8773 359.257 41.8832 360.977 46.3729 360.795L46.251 357.797ZM64.9186 350.128C62.5321 352.104 55.2722 357.43 46.251 357.797L46.3729 360.795C56.4044 360.387 64.3059 354.53 66.832 352.438L64.9186 350.128ZM68.6333 350.881C68.2784 350.109 67.5845 349.664 66.8569 349.563C66.1594 349.467 65.4558 349.683 64.9186 350.128L66.832 352.438C66.7549 352.502 66.6241 352.559 66.4467 352.535C66.3537 352.522 66.2443 352.485 66.1388 352.41C66.03 352.332 65.9524 352.232 65.9075 352.134L68.6333 350.881Z" fill="#224A95"/>
<path d="M83.0444 386.702C83.2417 389.194 86.9141 393.937 91.7899 393.699C99.3606 393.331 101.702 387.313 103.451 387.287C105.2 387.261 106.366 394.282 113.363 394.282C119.199 394.282 123.858 389.036 123.858 389.036C123.858 389.036 126.191 393.7 132.021 393.7C139.006 393.7 147.973 386.767 145.229 380.659C144.906 379.941 143.93 380.094 143.626 380.82C142.371 383.818 140.488 386.702 139.018 386.702C137.269 386.702 136.103 383.787 136.103 378.54C136.103 372.709 138.434 368.629 138.434 365.712C138.434 362.796 135.519 361.048 132.021 361.048C125.607 361.048 121.053 369.211 121.526 376.791C121.782 380.872 124.442 387.287 119.777 387.287C115.113 387.287 118.611 368.628 118.611 365.129C118.611 363.38 116.278 361.048 112.197 361.048C108.28 361.048 106.195 363.732 104.617 366.295C99.953 373.875 104.034 386.119 97.0377 387.287C94.1522 387.768 99.9527 369.794 99.9527 367.462C99.9527 365.712 99.48 363.846 98.7865 362.797C98.2035 361.915 96.748 359.882 92.956 359.882C89.6958 359.882 84.7932 362.215 84.7932 362.215C84.2104 373.292 82.2075 376.133 83.0444 386.702Z" fill="#EFC600" stroke="#224A95" stroke-width="3"/>
<path d="M182.164 403.606C186.246 375.619 187.284 362.9 187.412 338.887C187.412 338.887 190.91 336.56 196.741 336.56C202.572 336.56 203.738 341.808 203.738 344.723C203.738 352.886 199.073 369.795 197.907 377.374C211.901 377.374 227.705 368.996 227.643 351.72C227.595 338.309 219.48 333.645 200.239 333.645C183.408 333.645 161.758 343.559 161.758 355.212C161.758 361.511 167.588 364.547 174.585 364.547C179.832 364.547 180.415 362.798 183.331 362.798C184.497 362.798 187.766 372.71 175.168 372.71C167.005 372.71 156.509 368.034 156.51 355.212C156.51 342.391 175.751 328.98 204.904 328.98C234.056 328.98 244.552 339.665 244.552 348.221C244.552 379.706 197.324 380.867 197.324 380.867C194.996 389.327 193.242 396.609 193.825 408.853H185.079C183.913 408.853 181.768 405.938 182.164 403.606Z" fill="#EFC600" stroke="#224A95" stroke-width="3"/>
<path d="M143.1 348.221C143.1 352.885 137.27 356.966 132.605 356.966C128.255 356.966 125.025 353.737 125.025 349.386C125.025 344.139 131.17 341.807 135.52 341.807C139.602 341.807 143.1 344.722 143.1 348.221Z" fill="#EFC600" stroke="#224A95" stroke-width="3"/>
<path fill-rule="evenodd" clip-rule="evenodd" d="M290.742 381.959C292.221 387.504 285.826 393.917 278.952 393.698C274.898 393.569 272.008 390.339 270.431 387.982C266.85 390.386 260.775 393.695 254.464 393.695C244.551 393.695 236.389 387.924 236.389 378.536C236.389 368.624 246.884 358.712 257.962 358.712C263.114 358.712 266.708 362.793 266.708 366.875C266.708 377.059 255.01 379.579 251.074 380.139C250.426 380.231 250.021 380.881 250.324 381.461C251.369 383.453 254.104 387.282 259.711 387.282C263.312 387.282 266.73 385.259 269.035 383.486C269.029 373.258 269.353 366.967 270.206 357.548C266.708 357.548 263.209 356.965 263.209 355.216C263.209 353.467 271.372 352.884 271.372 352.884C271.372 352.884 270.789 341.805 271.372 341.223C271.955 340.64 275.454 338.891 278.952 338.891C285.196 338.891 286.969 341.223 287.115 341.806C287.698 344.138 287.592 347.048 287.115 350.552C289.156 350.779 291.174 350.224 292.703 349.804C293.538 349.575 294.227 349.386 294.695 349.386C296.017 349.386 296.444 357.548 294.695 358.715C293.521 359.497 291.57 359.636 289.749 359.766C288.204 359.876 286.752 359.979 285.949 360.464C283.616 361.871 281.284 380.871 281.284 383.203C281.284 383.414 281.282 383.625 281.28 383.834C281.256 385.938 281.235 387.867 283.616 387.867C285.836 387.867 287.643 384.936 289.208 381.913C289.57 381.212 290.539 381.196 290.742 381.959ZM255.928 362.869C257.365 366.892 253.82 374.753 250.66 376.478C250.202 376.728 249.696 376.401 249.642 375.882C249.17 371.398 252.327 364.041 254.966 362.482C255.337 362.263 255.783 362.463 255.928 362.869Z" fill="#EFC600"/>
<path d="M278.952 393.698L278.904 395.197L278.952 393.698ZM290.742 381.959L292.191 381.572L292.191 381.572L290.742 381.959ZM270.431 387.982L271.677 387.147L270.842 385.899L269.594 386.736L270.431 387.982ZM251.074 380.139L250.863 378.654L251.074 380.139ZM250.324 381.461L248.996 382.157L248.996 382.157L250.324 381.461ZM269.035 383.486L269.95 384.675L270.535 384.224L270.535 383.485L269.035 383.486ZM270.206 357.548L271.7 357.684L271.848 356.048H270.206V357.548ZM271.372 352.884L271.479 354.38L272.948 354.275L272.87 352.805L271.372 352.884ZM271.372 341.223L272.432 342.284L272.432 342.284L271.372 341.223ZM287.115 341.806L285.66 342.17V342.17L287.115 341.806ZM287.115 350.552L285.629 350.349L285.421 351.873L286.949 352.043L287.115 350.552ZM292.703 349.804L292.306 348.358L292.703 349.804ZM294.695 358.715L295.527 359.963V359.963L294.695 358.715ZM289.749 359.766L289.643 358.269L289.749 359.766ZM285.949 360.464L285.174 359.179V359.179L285.949 360.464ZM281.28 383.834L282.779 383.851V383.851L281.28 383.834ZM289.208 381.913L290.54 382.603L290.54 382.603L289.208 381.913ZM250.66 376.478L249.941 375.162L249.941 375.162L250.66 376.478ZM255.928 362.869L254.515 363.373V363.373L255.928 362.869ZM249.642 375.882L248.15 376.039L249.642 375.882ZM254.966 362.482L254.204 361.191L254.966 362.482ZM278.904 395.197C282.811 395.321 286.515 393.571 289.039 391.051C291.543 388.552 293.116 385.037 292.191 381.572L289.293 382.346C289.848 384.425 288.962 386.89 286.92 388.928C284.898 390.946 281.968 392.293 279 392.199L278.904 395.197ZM269.184 388.816C270.803 391.235 274.067 395.043 278.904 395.197L279 392.199C275.729 392.095 273.213 389.443 271.677 387.147L269.184 388.816ZM269.594 386.736C266.075 389.099 260.313 392.195 254.464 392.195V395.195C261.237 395.195 267.624 391.673 271.267 389.227L269.594 386.736ZM254.464 392.195C249.785 392.195 245.614 390.832 242.645 388.464C239.703 386.117 237.889 382.751 237.889 378.536H234.889C234.889 383.709 237.155 387.923 240.774 390.809C244.364 393.673 249.23 395.195 254.464 395.195V392.195ZM237.889 378.536C237.889 374.101 240.253 369.519 244.041 366.007C247.82 362.503 252.862 360.212 257.962 360.212V357.212C251.984 357.212 246.239 359.877 242.001 363.807C237.772 367.729 234.889 373.059 234.889 378.536H237.889ZM257.962 360.212C262.297 360.212 265.208 363.633 265.208 366.875H268.208C268.208 361.954 263.932 357.212 257.962 357.212V360.212ZM265.208 366.875C265.208 371.258 262.742 374.012 259.617 375.817C256.447 377.648 252.761 378.384 250.863 378.654L251.285 381.624C253.322 381.334 257.454 380.53 261.117 378.415C264.825 376.274 268.208 372.676 268.208 366.875H265.208ZM250.863 378.654C249.386 378.864 248.123 380.49 248.996 382.157L251.653 380.764C251.756 380.962 251.737 381.204 251.637 381.375C251.547 381.528 251.409 381.606 251.285 381.624L250.863 378.654ZM248.996 382.157C250.145 384.351 253.279 388.782 259.711 388.782V385.782C254.929 385.782 252.592 382.556 251.653 380.764L248.996 382.157ZM259.711 388.782C263.824 388.782 267.575 386.502 269.95 384.675L268.12 382.297C265.885 384.017 262.801 385.782 259.711 385.782V388.782ZM268.712 357.413C267.855 366.874 267.529 373.211 267.535 383.487L270.535 383.485C270.529 373.306 270.851 367.06 271.7 357.684L268.712 357.413ZM261.709 355.216C261.709 356.234 262.245 356.996 262.884 357.498C263.489 357.973 264.25 358.277 264.994 358.484C266.498 358.901 268.403 359.048 270.206 359.048V356.048C268.511 356.048 266.918 355.904 265.797 355.593C265.23 355.435 264.898 355.265 264.737 355.139C264.611 355.039 264.709 355.073 264.709 355.216H261.709ZM271.372 352.884C271.265 351.388 271.265 351.388 271.265 351.388C271.265 351.388 271.265 351.388 271.264 351.388C271.264 351.388 271.263 351.388 271.263 351.388C271.261 351.388 271.259 351.388 271.257 351.388C271.252 351.389 271.246 351.389 271.237 351.39C271.22 351.391 271.195 351.393 271.163 351.396C271.1 351.401 271.008 351.408 270.892 351.418C270.66 351.438 270.331 351.469 269.937 351.511C269.152 351.595 268.094 351.727 267.027 351.918C265.979 352.105 264.842 352.362 263.936 352.718C263.491 352.893 263.006 353.128 262.608 353.455C262.218 353.775 261.709 354.359 261.709 355.216H264.709C264.709 355.636 264.456 355.819 264.512 355.773C264.56 355.733 264.714 355.636 265.033 355.51C265.658 355.265 266.562 355.048 267.555 354.871C268.528 354.697 269.511 354.574 270.257 354.494C270.628 354.454 270.936 354.425 271.151 354.407C271.259 354.398 271.342 354.391 271.398 354.386C271.426 354.384 271.447 354.383 271.461 354.382C271.468 354.381 271.473 354.381 271.476 354.38C271.477 354.38 271.478 354.38 271.479 354.38C271.479 354.38 271.479 354.38 271.479 354.38C271.479 354.38 271.479 354.38 271.479 354.38C271.479 354.38 271.479 354.38 271.372 352.884ZM270.312 340.161C270.095 340.378 269.987 340.61 269.938 340.726C269.881 340.861 269.844 340.99 269.819 341.092C269.769 341.296 269.737 341.517 269.714 341.725C269.667 342.148 269.641 342.679 269.627 343.254C269.598 344.412 269.617 345.882 269.654 347.31C269.691 348.743 269.746 350.156 269.792 351.209C269.815 351.736 269.835 352.174 269.85 352.48C269.858 352.633 269.864 352.753 269.868 352.836C269.87 352.877 269.872 352.908 269.873 352.93C269.873 352.94 269.874 352.949 269.874 352.954C269.874 352.957 269.874 352.959 269.874 352.961C269.874 352.961 269.874 352.962 269.874 352.962C269.874 352.962 269.874 352.963 269.874 352.963C269.874 352.963 269.874 352.963 271.372 352.884C272.87 352.805 272.87 352.805 272.87 352.805C272.87 352.805 272.87 352.805 272.87 352.805C272.87 352.804 272.87 352.804 272.87 352.803C272.87 352.802 272.87 352.8 272.87 352.798C272.87 352.793 272.869 352.785 272.869 352.775C272.868 352.754 272.866 352.723 272.864 352.683C272.86 352.603 272.854 352.485 272.847 352.334C272.832 352.032 272.812 351.6 272.789 351.079C272.744 350.036 272.689 348.642 272.653 347.233C272.617 345.819 272.599 344.409 272.626 343.327C272.639 342.781 272.663 342.351 272.696 342.057C272.712 341.906 272.727 341.83 272.733 341.807C272.736 341.796 272.728 341.83 272.704 341.889C272.687 341.928 272.613 342.104 272.432 342.284L270.312 340.161ZM278.952 337.391C276.971 337.391 275.041 337.882 273.55 338.431C272.799 338.708 272.136 339.008 271.609 339.287C271.132 339.539 270.629 339.845 270.312 340.161L272.432 342.284C272.407 342.309 272.56 342.178 273.012 341.938C273.414 341.726 273.954 341.479 274.588 341.246C275.867 340.774 277.435 340.391 278.952 340.391V337.391ZM288.57 341.442C288.446 340.945 288.118 340.467 287.746 340.074C287.339 339.643 286.773 339.2 286.021 338.803C284.514 338.007 282.256 337.391 278.952 337.391V340.391C281.892 340.391 283.643 340.94 284.62 341.456C285.109 341.714 285.405 341.964 285.566 342.135C285.762 342.343 285.711 342.375 285.66 342.17L288.57 341.442ZM288.601 350.754C289.084 347.212 289.226 344.065 288.57 341.442L285.66 342.17C286.17 344.212 286.101 346.884 285.629 350.349L288.601 350.754ZM292.306 348.358C290.74 348.788 288.993 349.251 287.28 349.061L286.949 352.043C289.319 352.306 291.609 351.66 293.1 351.251L292.306 348.358ZM294.695 347.886C294.288 347.886 293.866 347.964 293.505 348.046C293.13 348.131 292.714 348.246 292.306 348.358L293.1 351.251C293.527 351.133 293.873 351.039 294.169 350.972C294.477 350.902 294.634 350.886 294.695 350.886V347.886ZM295.527 359.963C296.075 359.597 296.407 359.057 296.615 358.603C296.833 358.127 296.983 357.591 297.089 357.058C297.303 355.99 297.374 354.744 297.346 353.576C297.318 352.412 297.187 351.237 296.952 350.311C296.838 349.86 296.676 349.375 296.433 348.969C296.238 348.642 295.697 347.886 294.695 347.886V350.886C294.022 350.886 293.784 350.384 293.859 350.508C293.885 350.553 293.96 350.715 294.044 351.048C294.207 351.689 294.322 352.627 294.347 353.649C294.372 354.669 294.305 355.682 294.147 356.472C294.068 356.868 293.976 357.161 293.887 357.355C293.788 357.57 293.752 357.54 293.862 357.467L295.527 359.963ZM289.856 361.262C290.75 361.198 291.77 361.127 292.72 360.963C293.654 360.802 294.68 360.527 295.527 359.963L293.862 357.467C293.536 357.684 293 357.87 292.21 358.007C291.435 358.14 290.569 358.203 289.643 358.269L289.856 361.262ZM286.724 361.748C286.864 361.664 287.185 361.55 287.797 361.457C288.382 361.368 289.067 361.318 289.856 361.262L289.643 358.269C288.886 358.323 288.072 358.38 287.344 358.491C286.643 358.599 285.837 358.779 285.174 359.179L286.724 361.748ZM282.784 383.203C282.784 382.177 283.346 376.957 284.221 371.734C284.655 369.144 285.156 366.621 285.684 364.675C285.949 363.698 286.209 362.911 286.454 362.348C286.576 362.067 286.68 361.877 286.759 361.759C286.849 361.624 286.848 361.673 286.724 361.748L285.174 359.179C284.757 359.431 284.465 359.793 284.265 360.091C284.053 360.408 283.868 360.773 283.703 361.15C283.375 361.905 283.07 362.851 282.788 363.89C282.223 365.975 281.703 368.611 281.263 371.238C280.389 376.451 279.784 381.897 279.784 383.203H282.784ZM282.779 383.851C282.782 383.643 282.784 383.424 282.784 383.203H279.784C279.784 383.404 279.782 383.607 279.78 383.818L282.779 383.851ZM283.616 386.367C283.218 386.367 283.079 386.287 283.054 386.271C283.043 386.264 283 386.241 282.944 386.097C282.879 385.928 282.824 385.662 282.797 385.252C282.769 384.844 282.773 384.39 282.779 383.851L279.78 383.818C279.769 384.765 279.73 386.108 280.148 387.183C280.381 387.784 280.778 388.375 281.432 388.795C282.073 389.207 282.824 389.367 283.616 389.367V386.367ZM287.876 381.224C287.098 382.726 286.317 384.089 285.505 385.064C284.659 386.08 284.036 386.367 283.616 386.367V389.367C285.416 389.367 286.806 388.189 287.81 386.984C288.848 385.738 289.753 384.123 290.54 382.603L287.876 381.224ZM292.191 381.572C291.908 380.511 291.007 379.899 290.052 379.887C289.159 379.877 288.311 380.381 287.876 381.224L290.54 382.603C290.467 382.744 290.284 382.89 290.017 382.887C289.88 382.886 289.714 382.842 289.561 382.727C289.402 382.606 289.322 382.454 289.293 382.346L292.191 381.572ZM251.379 377.795C252.448 377.211 253.418 376.195 254.233 375.069C255.066 373.919 255.815 372.542 256.405 371.105C256.995 369.668 257.442 368.13 257.642 366.651C257.839 365.189 257.81 363.678 257.34 362.364L254.515 363.373C254.764 364.07 254.831 365.051 254.669 366.249C254.51 367.429 254.142 368.718 253.63 369.966C253.119 371.212 252.479 372.375 251.803 373.31C251.109 374.269 250.452 374.883 249.941 375.162L251.379 377.795ZM248.15 376.039C248.225 376.749 248.617 377.385 249.223 377.752C249.851 378.132 250.661 378.186 251.379 377.795L249.941 375.162C250.201 375.02 250.53 375.036 250.776 375.185C251.001 375.321 251.113 375.534 251.133 375.725L248.15 376.039ZM254.204 361.191C253.26 361.748 252.417 362.716 251.711 363.765C250.983 364.844 250.31 366.145 249.749 367.518C248.644 370.22 247.877 373.447 248.15 376.039L251.133 375.725C250.934 373.833 251.51 371.139 252.526 368.652C253.025 367.431 253.606 366.32 254.198 365.441C254.811 364.532 255.353 363.996 255.729 363.774L254.204 361.191ZM257.34 362.364C256.93 361.215 255.512 360.418 254.204 361.191L255.729 363.774C255.488 363.916 255.194 363.926 254.955 363.826C254.73 363.732 254.581 363.557 254.515 363.373L257.34 362.364Z" fill="#224A95"/>
</svg>
