<svg width="102" height="67" viewBox="0 0 102 67" fill="none" xmlns="http://www.w3.org/2000/svg">
<rect x="1" y="1" width="100" height="65" rx="7" stroke="#224A95" stroke-width="2"/>
<path d="M72.0512 10H80.5267L62.8885 27.4642C56.5009 33.7853 46.1447 33.7853 39.7526 27.4642L22.1074 10H30.5898L43.9903 23.2665C45.9428 25.1908 48.574 26.2695 51.3154 26.2695C54.0567 26.2695 56.688 25.1908 58.6404 23.2665L72.0512 10Z" fill="#224A95"/>
<path d="M30.4813 58.5627H22L39.7528 40.9909C46.1404 34.6697 56.4966 34.6697 62.8887 40.9909L80.6415 58.5627H72.166L58.6509 45.1885C56.6985 43.2642 54.0673 42.1855 51.3259 42.1855C48.5846 42.1855 45.9533 43.2642 44.0009 45.1885L30.4813 58.5627Z" fill="#224A95"/>
</svg>
